<svg width="24" height="25" viewBox="0 0 24 25" fill="none" xmlns="http://www.w3.org/2000/svg">
<g id="Icon / envelope">
<path id="icon" d="M20 4.16797H4C2.897 4.16797 2 5.06497 2 6.16797V18.168C2 19.271 2.897 20.168 4 20.168H20C21.103 20.168 22 19.271 22 18.168V6.16797C22 5.06497 21.103 4.16797 20 4.16797ZM20 6.16797V6.67897L12 12.902L4 6.67997V6.16797H20ZM4 18.168V9.21197L11.386 14.957C11.5611 15.0945 11.7773 15.1693 12 15.1693C12.2227 15.1693 12.4389 15.0945 12.614 14.957L20 9.21197L20.002 18.168H4Z" fill="#A4636F"/>
</g>
</svg>
