<svg width="24" height="25" viewBox="0 0 24 25" fill="none" xmlns="http://www.w3.org/2000/svg">
<path fill-rule="evenodd" clip-rule="evenodd" d="M16 3.41016H8C5.23858 3.41016 3 5.64874 3 8.41016V16.4102C3 19.1716 5.23858 21.4102 8 21.4102H16C18.7614 21.4102 21 19.1716 21 16.4102V8.41016C21 5.64874 18.7614 3.41016 16 3.41016ZM19.25 16.4102C19.2445 18.2028 17.7926 19.6547 16 19.6602H8C6.20735 19.6547 4.75549 18.2028 4.75 16.4102V8.41016C4.75549 6.61751 6.20735 5.16565 8 5.16016H16C17.7926 5.16565 19.2445 6.61751 19.25 8.41016V16.4102ZM16.75 8.66016C17.3023 8.66016 17.75 8.21244 17.75 7.66016C17.75 7.10788 17.3023 6.66016 16.75 6.66016C16.1977 6.66016 15.75 7.10788 15.75 7.66016C15.75 8.21244 16.1977 8.66016 16.75 8.66016ZM12 7.91016C9.51472 7.91016 7.5 9.92488 7.5 12.4102C7.5 14.8955 9.51472 16.9102 12 16.9102C14.4853 16.9102 16.5 14.8955 16.5 12.4102C16.5027 11.2159 16.0294 10.0697 15.1849 9.22524C14.3404 8.38075 13.1943 7.9075 12 7.91016ZM9.25 12.4102C9.25 13.929 10.4812 15.1602 12 15.1602C13.5188 15.1602 14.75 13.929 14.75 12.4102C14.75 10.8914 13.5188 9.66016 12 9.66016C10.4812 9.66016 9.25 10.8914 9.25 12.4102Z" fill="white"/>
</svg>
