<svg width="24" height="24" viewBox="0 0 24 24" fill="none" xmlns="http://www.w3.org/2000/svg">
<path fill-rule="evenodd" clip-rule="evenodd" d="M8.32422 4.69727C6.52929 4.69727 5.07422 6.15234 5.07422 7.94727V15.9473C5.07422 17.7422 6.52929 19.1973 8.32422 19.1973H16.3242C18.1191 19.1973 19.5742 17.7422 19.5742 15.9473V7.94727C19.5742 6.15234 18.1191 4.69727 16.3242 4.69727H8.32422ZM3.57422 7.94727C3.57422 5.32391 5.70087 3.19727 8.32422 3.19727H16.3242C18.9476 3.19727 21.0742 5.32391 21.0742 7.94727V15.9473C21.0742 18.5706 18.9476 20.6973 16.3242 20.6973H8.32422C5.70087 20.6973 3.57422 18.5706 3.57422 15.9473V7.94727ZM12.3242 9.69727C11.0816 9.69727 10.0742 10.7046 10.0742 11.9473C10.0742 13.1899 11.0816 14.1973 12.3242 14.1973C13.5669 14.1973 14.5742 13.1899 14.5742 11.9473C14.5742 10.7046 13.5669 9.69727 12.3242 9.69727ZM8.57422 11.9473C8.57422 9.8762 10.2532 8.19727 12.3242 8.19727C14.3953 8.19727 16.0742 9.8762 16.0742 11.9473C16.0742 14.0183 14.3953 15.6973 12.3242 15.6973C10.2532 15.6973 8.57422 14.0183 8.57422 11.9473ZM17.5742 7.44727C17.5742 7.03305 17.2384 6.69727 16.8242 6.69727C16.41 6.69727 16.0742 7.03305 16.0742 7.44727V7.44827C16.0742 7.86248 16.41 8.19827 16.8242 8.19827C17.2384 8.19827 17.5742 7.86248 17.5742 7.44827V7.44727Z" fill="#282828"/>
</svg>
