<svg width="24" height="25" viewBox="0 0 24 25" fill="none" xmlns="http://www.w3.org/2000/svg">
<g id="Icon / phone">
<path id="icon" d="M17.7073 12.4612C17.6145 12.3682 17.5043 12.2945 17.383 12.2442C17.2617 12.1939 17.1317 12.168 17.0003 12.168C16.869 12.168 16.739 12.1939 16.6176 12.2442C16.4963 12.2945 16.3861 12.3682 16.2933 12.4612L14.6993 14.0552C13.9603 13.8352 12.5813 13.3352 11.7073 12.4612C10.8333 11.5872 10.3333 10.2082 10.1133 9.46917L11.7073 7.87517C11.8003 7.78238 11.874 7.67218 11.9243 7.55086C11.9746 7.42955 12.0005 7.2995 12.0005 7.16817C12.0005 7.03684 11.9746 6.90679 11.9243 6.78548C11.874 6.66416 11.8003 6.55396 11.7073 6.46117L7.70733 2.46117C7.61455 2.36822 7.50434 2.29449 7.38303 2.24418C7.26171 2.19386 7.13167 2.16797 7.00033 2.16797C6.869 2.16797 6.73896 2.19386 6.61764 2.24418C6.49633 2.29449 6.38612 2.36822 6.29333 2.46117L3.58133 5.17317C3.20133 5.55317 2.98733 6.07517 2.99533 6.60817C3.01833 8.03217 3.39533 12.9782 7.29333 16.8762C11.1913 20.7742 16.1373 21.1502 17.5623 21.1742H17.5903C18.1183 21.1742 18.6173 20.9662 18.9953 20.5882L21.7073 17.8762C21.8003 17.7834 21.874 17.6732 21.9243 17.5519C21.9746 17.4305 22.0005 17.3005 22.0005 17.1692C22.0005 17.0378 21.9746 16.9078 21.9243 16.7865C21.874 16.6652 21.8003 16.555 21.7073 16.4622L17.7073 12.4612ZM17.5803 19.1732C16.3323 19.1522 12.0623 18.8172 8.70733 15.4612C5.34133 12.0952 5.01533 7.81017 4.99533 6.58717L7.00033 4.58217L9.58633 7.16817L8.29333 8.46117C8.1758 8.57862 8.08938 8.72351 8.04189 8.88274C7.9944 9.04197 7.98733 9.21052 8.02133 9.37317C8.04533 9.48817 8.63233 12.2152 10.2923 13.8752C11.9523 15.5352 14.6793 16.1222 14.7943 16.1462C14.9569 16.1811 15.1256 16.1746 15.285 16.1273C15.4444 16.0799 15.5893 15.9932 15.7063 15.8752L17.0003 14.5822L19.5863 17.1682L17.5803 19.1732Z" fill="#A4636F"/>
</g>
</svg>
