<svg width="312" height="234" viewBox="0 0 312 234" fill="none" xmlns="http://www.w3.org/2000/svg">
<path d="M235.848 148.985C237.192 153.017 235.153 157.567 232.614 160.68C229.606 164.378 225.388 166.94 221.273 169.249C220.673 169.578 219.793 168.913 220.089 168.236C221.768 164.556 221.624 160.995 219.918 157.319C218.447 154.16 216.636 151.224 216.389 147.658C215.977 141.049 220.072 135.153 226.267 132.979C226.067 133.379 225.873 133.804 225.673 134.204C223.478 129.398 224.32 123.402 227.781 119.406C231.496 115.153 237.509 113.837 242.737 115.684C243.068 115.796 243.247 116.169 243.136 116.5C241.48 121.663 239.919 126.909 239.472 132.336C239.275 134.865 239.684 137.474 239.275 139.969C238.912 142.07 237.81 143.939 236.221 145.317C235.476 145.933 234.509 144.849 235.225 144.215C237.043 142.583 237.844 140.495 237.914 138.095C237.983 135.567 237.935 133.089 238.29 130.579C238.99 125.639 240.495 120.866 241.926 116.108C242.061 116.388 242.196 116.668 242.325 116.923C237.759 115.427 232.274 116.942 229.122 120.566C226.078 124.092 225.432 129.175 227.206 133.427C227.445 133.967 227.168 134.486 226.612 134.652C220.13 136.68 216.292 143.575 218.133 150.146C219.068 153.442 221.282 156.218 222.222 159.538C223.057 162.47 222.875 165.944 221.659 168.759C221.258 168.432 220.877 168.074 220.476 167.746C224.227 165.537 228.117 163.377 231.019 160.034C233.755 156.88 234.936 153.149 234.883 149.03C234.865 148.444 235.673 148.508 235.818 148.966L235.848 148.985Z" fill="#AEB0A0"/>
<path d="M238.738 136.023C240.13 133.069 242.401 130.523 244.58 128.151C246.862 125.655 249.361 123.345 252.034 121.255C253.957 119.756 257.125 118.077 258.949 120.703C259.748 121.846 259.92 123.427 260.248 124.77C260.354 125.287 260.447 125.986 261.015 126.253C261.356 126.414 261.814 126.397 262.179 126.424C262.914 126.504 263.623 126.588 264.344 126.722C269.404 127.757 274.599 131.56 276.23 136.611C277.208 139.616 275.603 141.665 273.536 143.706C271.082 146.11 268.385 148.333 265.374 150.03C262.182 151.842 258.597 152.991 254.912 153.031C251.05 153.083 247.489 151.611 244.061 150.034C243.325 149.698 243.697 148.519 244.477 148.82C247.292 149.907 250.122 151.068 253.134 151.371C256.303 151.693 259.497 151.01 262.392 149.747C265.168 148.533 267.681 146.785 269.995 144.82C271.064 143.908 272.098 142.951 273.127 141.969C274.22 140.924 275.194 139.8 275.145 138.194C275.076 135.617 273.086 133.052 271.263 131.427C269.277 129.63 266.767 128.403 264.129 127.921C263.063 127.73 261.961 127.854 260.91 127.609C259.731 127.364 259.253 126.539 258.902 125.458C258.506 124.282 258.343 122.495 257.485 121.569C256.266 120.255 254.406 121.562 253.317 122.376C250.707 124.401 248.247 126.652 245.945 129.05C243.663 131.418 241.732 134.124 239.42 136.473C239.146 136.76 238.563 136.418 238.738 136.023Z" fill="#AEB0A0"/>
<path d="M254.374 152.113C259.883 153.954 264.2 159.348 265.833 164.783C266.696 167.606 266.857 170.754 265.789 173.538C265.352 174.654 264.758 175.88 263.713 176.531C262.353 177.401 260.686 177.155 259.211 176.843C259.569 176.589 259.933 176.361 260.291 176.107C260.282 178.931 259.796 181.801 258.693 184.413C258.212 185.564 257.639 187.016 256.723 187.923C255.757 188.84 254.495 188.561 253.379 188.124C248.095 186.006 242.289 183.098 240.197 177.425C239.847 176.471 241.261 175.744 241.612 176.697C243.348 181.393 247.802 183.964 252.129 185.919C253.285 186.425 255.105 187.666 256.098 186.384C256.788 185.498 257.259 184.298 257.632 183.247C258.471 180.971 258.837 178.638 258.646 176.215C258.599 175.738 258.911 175.135 259.517 175.215C260.977 175.453 262.55 175.745 263.518 174.34C264.187 173.356 264.564 172.072 264.73 170.884C265.09 168.399 264.612 165.83 263.653 163.539C261.69 158.865 258.08 155.659 254.014 152.854C253.623 152.576 253.924 151.924 254.393 152.083L254.374 152.113Z" fill="#AEB0A0"/>
<path d="M238.489 149.767C243.217 155.539 245.13 163.455 243.901 170.813C243.287 174.556 241.644 177.536 238.835 180.09C235.85 182.782 232.548 185.181 229.151 187.368C227.747 188.273 226.143 189.45 225.196 187.465C224.208 185.411 223.628 183.094 223.32 180.849C223.587 181.025 223.854 181.201 224.151 181.396C222.665 181.779 221.088 181.719 219.627 181.225C218.467 180.823 216.673 179.961 216.282 178.682C216.056 177.959 216.377 177.278 216.625 176.611C217.033 175.604 217.441 174.596 217.873 173.584C218.714 171.564 219.614 169.583 220.485 167.583C220.83 166.768 222.148 167.189 221.808 168.028C220.662 170.932 219.511 173.811 218.305 176.675C217.946 177.544 217.545 178.217 218.407 178.911C218.867 179.278 219.366 179.586 219.924 179.804C221.208 180.309 222.554 180.366 223.892 180.013C224.236 179.942 224.671 180.186 224.722 180.56C224.882 181.707 225.115 182.839 225.422 183.956C225.593 184.536 226.153 186.883 226.789 186.983C226.977 187.021 227.742 186.376 227.899 186.267C228.399 185.959 228.875 185.655 229.371 185.322C230.412 184.646 231.418 183.926 232.424 183.206C235.72 180.783 239.75 178.055 241.383 174.153C242.928 170.449 242.972 166.054 242.343 162.131C241.659 157.937 239.986 153.922 237.714 150.363C237.405 149.862 238.195 149.34 238.543 149.782L238.489 149.767Z" fill="#AEB0A0"/>
<path d="M235.747 149.513C234.734 150.569 233.275 151.331 231.973 151.984C230.622 152.647 229.201 153.222 227.75 153.649C224.868 154.473 221.849 154.633 218.899 154.01C218.203 153.871 218.547 152.8 219.248 152.963C222.04 153.568 224.916 153.335 227.645 152.516C228.998 152.109 230.325 151.579 231.578 150.937C232.83 150.294 233.988 149.44 235.281 148.866C235.703 148.676 236.041 149.196 235.723 149.519L235.747 149.513Z" fill="#AEB0A0"/>
<path d="M234.153 146.485C232.848 146.625 231.511 146.362 230.22 146.192C228.844 145.988 227.482 145.73 226.15 145.363C223.52 144.674 220.991 143.604 218.79 142.006C218.122 141.502 218.825 140.434 219.513 140.908C221.63 142.472 224.04 143.464 226.567 144.149C227.815 144.482 229.078 144.76 230.361 145.009C231.643 145.258 233.004 145.388 234.233 145.878C234.485 145.98 234.532 146.458 234.202 146.475L234.153 146.485Z" fill="#AEB0A0"/>
<path d="M234.444 143.762C233.462 143.477 232.591 142.861 231.775 142.26C230.924 141.614 230.131 140.88 229.403 140.081C227.87 138.37 226.622 136.421 225.473 134.452C225.03 133.671 226.258 133.034 226.726 133.81C227.83 135.685 228.979 137.526 230.417 139.154C231.081 139.889 231.79 140.589 232.538 141.23C233.285 141.872 234.121 142.443 234.83 143.144C235.122 143.443 234.77 143.849 234.419 143.767L234.444 143.762Z" fill="#AEB0A0"/>
<path d="M235.848 142.219C234.827 140.377 233.665 138.718 232.944 136.712C232.207 134.633 231.766 132.492 231.572 130.301C231.162 125.948 231.482 121.522 232.023 117.178C232.146 116.28 233.497 116.361 233.428 117.273C233.138 121.591 232.64 125.9 233.064 130.198C233.253 132.237 233.619 134.265 234.246 136.188C234.883 138.16 235.825 139.992 236.487 141.959C236.617 142.342 236.036 142.513 235.842 142.194L235.848 142.219Z" fill="#AEB0A0"/>
<path d="M237.597 146.085C240.69 145.91 243.867 145.769 246.904 145.194C249.793 144.651 252.53 143.497 255.034 141.955C260.067 138.867 263.947 134.297 267.478 129.645C268.065 128.883 269.306 129.679 268.724 130.466C265.092 135.369 260.985 140.088 255.727 143.326C253.179 144.902 250.363 146.047 247.429 146.625C244.127 147.28 240.884 147.101 237.542 146.815C237.074 146.783 237.144 146.127 237.597 146.085Z" fill="#AEB0A0"/>
<path d="M238.717 144.518C240.472 142.951 242.569 141.8 244.453 140.361C246.336 138.921 248.146 137.369 249.826 135.689C251.506 134.009 253.117 132.241 254.579 130.375C256.081 128.45 257.315 126.349 258.728 124.365C259.104 123.826 260.111 124.234 259.81 124.886C258.753 127.104 257.203 129.168 255.677 131.098C254.171 132.999 252.575 134.84 250.821 136.536C249.023 138.265 247.101 139.892 245.099 141.382C243.23 142.767 241.204 144.262 238.966 144.979C238.701 145.06 238.546 144.681 238.747 144.537L238.717 144.518Z" fill="#AEB0A0"/>
<path d="M244.852 149.364C247.765 148.687 250.795 148.576 253.707 147.899C256.601 147.252 259.428 146.285 262.086 144.994C264.415 143.847 266.639 142.44 268.629 140.773C270.703 139.012 272.283 136.968 273.976 134.85C274.465 134.236 275.379 134.817 274.984 135.514C273.717 137.827 271.654 139.893 269.644 141.59C267.57 143.351 265.288 144.847 262.841 146.044C260.164 147.365 257.292 148.366 254.379 149.043C251.348 149.77 247.972 150.44 244.861 150.029C244.467 149.982 244.429 149.426 244.823 149.345L244.852 149.364Z" fill="#AEB0A0"/>
<path d="M153.417 119.174C156.532 119.353 159.67 119.399 162.773 119.145C165.722 118.897 168.676 118.417 171.615 117.991C176.818 117.227 182.265 116.028 187.55 116.53C192.282 116.965 196.212 119.234 198.782 123.244C201.645 127.682 202.761 133.223 204.032 138.271C204.45 139.929 204.844 141.592 205.213 143.26C205.507 144.687 206.162 146.373 205.949 147.828C205.537 150.683 202.314 149.731 200.432 150.554C200.568 150.347 200.686 150.169 200.822 149.961C200.87 151.439 200.889 152.897 200.931 154.35C200.947 155.424 201.162 156.714 200.596 157.702C200.157 158.434 199.425 158.867 198.653 159.103C197.33 159.529 195.981 159.704 194.678 160.229C192.167 161.234 189.758 162.243 187.06 162.593C184.663 162.908 182.233 162.818 179.836 162.389C169.888 160.539 162.956 152.785 159.578 143.606C157.606 138.266 156.232 132.47 152.36 128.113C151.695 127.377 152.847 126.371 153.487 127.111C159.69 134.067 159.827 144.195 165.442 151.529C171.171 159.044 180.93 163.215 190.221 160.378C191.666 159.926 193.042 159.258 194.448 158.738C195.638 158.287 196.854 158.088 198.064 157.736C199.731 157.239 199.541 155.944 199.518 154.462C199.485 152.93 199.451 151.397 199.467 149.855C199.47 149.624 199.646 149.357 199.858 149.262C200.762 148.922 201.678 148.887 202.629 148.768C203.106 148.721 203.687 148.678 204.119 148.41C204.836 147.903 204.629 147.022 204.477 146.284C203.914 143.553 203.248 140.817 202.562 138.112C201.368 133.433 200.236 128.434 197.615 124.305C195 120.202 190.91 118.274 186.11 118.134C181.128 117.98 176.075 119.098 171.162 119.777C165.181 120.624 159.322 121.446 153.339 120.165C152.752 120.055 152.973 119.137 153.545 119.173L153.417 119.174Z" fill="#AEB0A0"/>
<path d="M163.857 149.834C168.262 155.903 167.689 164.947 164.42 171.366C162.831 174.489 160.507 177.276 157.711 179.391C156.357 180.414 154.63 181.616 152.881 181.72C151.108 181.828 150.246 180.134 149.416 178.843C148.864 178.033 148.357 177.188 147.874 176.339C147.516 175.72 147.628 175.517 146.935 175.763C146.458 175.938 146.006 176.108 145.524 176.259C143.62 176.856 141.484 177.193 139.503 177.037C137.777 176.88 136.536 176.084 135.665 174.596C134.571 172.769 133.741 170.734 132.878 168.783C131.136 164.936 129.315 160.95 128.582 156.767C127.879 152.731 128.787 148.799 130.081 144.993C131.413 141.128 133.324 137.451 136.456 134.728C139.76 131.842 143.839 129.976 146.865 126.736C147.58 125.973 148.676 127.184 147.961 127.947C145.65 130.424 142.743 132.125 140.01 134.048C137.119 136.079 134.773 138.512 133.2 141.709C131.681 144.792 130.494 148.37 130.095 151.787C129.611 155.785 130.894 159.651 132.314 163.308C133.019 165.112 133.823 166.896 134.646 168.65C135.424 170.311 136.149 172.085 137.094 173.686C138.238 175.63 140.317 175.51 142.315 175.252C143.241 175.139 144.127 174.956 145.022 174.695C145.794 174.459 146.678 173.892 147.496 173.878C148.949 173.835 149.542 175.841 150.158 176.843C150.626 177.619 151.138 178.36 151.649 179.101C152.409 180.175 153.182 180.068 154.307 179.554C157.33 178.162 159.886 175.506 161.713 172.796C163.789 169.675 165.049 166.081 165.334 162.355C165.659 158.081 164.503 154.215 163.121 150.242C162.98 149.81 163.658 149.49 163.912 149.849L163.857 149.834Z" fill="#AEB0A0"/>
<path d="M143.421 131.267C135.481 135.057 126.446 137.765 117.759 134.937C114.101 133.741 111.461 131.387 110.268 127.708C109.571 125.569 109.262 123.324 108.865 121.149C108.453 118.771 108.02 116.424 107.608 114.046C107.287 112.24 106.456 109.949 108.276 108.702C110.348 107.301 112.948 106.355 115.229 105.346L114.885 106.417C114.072 104.712 113.727 102.911 113.849 101.014C113.881 100.673 114.146 100.337 114.49 100.266C120.903 99.0221 126.097 93.2328 132.991 94.4544C139.304 95.5908 143.396 101.135 146.063 106.485C147.014 108.366 147.843 110.273 148.746 112.165C149.598 113.938 150.418 115.924 152.153 117.003C153.004 117.52 152.159 118.772 151.313 118.279C149.638 117.367 148.707 115.712 147.904 114.056C146.863 111.988 145.939 109.87 144.917 107.772C143.068 104.024 140.849 100.351 137.333 97.9719C133.816 95.5927 129.947 95.3637 126.074 96.9822C122.27 98.561 118.879 101.029 114.785 101.821C114.99 101.574 115.22 101.321 115.426 101.074C115.322 102.685 115.606 104.191 116.29 105.641C116.469 106.014 116.349 106.552 115.946 106.712C114.162 107.515 112.383 108.343 110.615 109.221C110.241 109.4 109.838 109.56 109.475 109.789C108.773 110.241 108.676 110.518 108.754 111.271C108.864 112.3 109.126 113.323 109.309 114.337C110.016 118.27 110.488 122.302 111.515 126.169C111.979 127.92 112.688 129.621 113.981 130.919C115.21 132.153 116.826 132.898 118.469 133.406C122.171 134.567 126.296 134.795 130.105 134.112C134.584 133.318 138.706 131.289 143.165 130.396C143.632 130.3 143.878 130.993 143.455 131.183L143.421 131.267Z" fill="#AEB0A0"/>
<path d="M151.477 117.81C148.702 114.175 147.563 109.768 147.079 105.302C146.579 100.634 146.364 95.856 146.786 91.178C147.156 86.9979 147.946 82.1158 150.78 78.8133C153.613 75.5109 158.188 74.1839 162.287 73.2883C164.644 72.7772 167.066 72.4578 169.474 72.3208C170.641 72.2599 171.819 72.2482 172.982 72.2908C173.81 72.3254 174.937 72.1958 175.655 72.6893C176.372 73.1828 176.352 73.9564 176.41 74.7394C176.509 76.4633 178.274 75.8176 179.415 75.5056C181.279 74.9677 183.648 74.7619 185.461 75.594C186.083 75.8762 186.455 76.3125 186.548 77.0116C186.688 78.1883 186.37 79.5106 186.387 80.7126C186.421 83.2448 186.835 85.7502 187.317 88.2158C188.135 92.5615 189.116 96.9506 188.881 101.411C188.645 105.871 186.984 110.009 183.691 113.073C180.392 116.112 176.048 118.058 171.809 119.393C171.234 119.589 170.937 118.649 171.448 118.39C174.799 116.725 178.314 115.36 181.306 113.077C184.387 110.724 186.423 107.534 187.071 103.707C188.452 95.4715 184.608 87.517 184.866 79.3073C184.893 78.8145 185.013 78.2768 184.966 77.7992C184.892 76.9423 184.498 76.8953 183.753 76.7666C182.663 76.5807 181.565 76.6018 180.487 76.8494C178.893 77.2034 177.218 78.0358 175.703 76.9113C175.159 76.5104 174.88 75.9011 174.797 75.2512C174.761 74.9509 174.919 74.2258 174.697 74.0152C174.474 73.8046 173.4 73.9487 173.065 73.9408C170.72 73.8853 168.385 74.0071 166.066 74.3308C162.049 74.8761 157.645 75.7833 154.209 78.03C150.435 80.5003 149.223 84.9562 148.627 89.1573C147.959 93.886 148.115 98.7528 148.478 103.5C148.87 108.267 149.71 113.096 152.301 117.204C152.609 117.705 151.799 118.257 151.447 117.791L151.477 117.81Z" fill="#AEB0A0"/>
<path d="M148.005 121.938C145.288 120.702 142.683 119.264 139.869 118.176C137.024 117.069 134.122 116.179 131.249 115.181C128.435 114.222 125.65 113.154 123.012 111.799C121.692 111.122 120.407 110.361 119.224 109.476C117.854 108.424 116.713 107.12 115.425 105.975C115.079 105.661 115.593 105.043 115.964 105.351C118.498 107.317 121.346 109.193 124.207 110.63C126.9 111.999 129.773 112.997 132.617 113.976C135.431 114.935 138.284 115.835 141.034 116.987C143.642 118.066 146.364 119.326 148.376 121.374C148.609 121.634 148.321 122.104 147.985 121.968L148.005 121.938Z" fill="#AEB0A0"/>
<path d="M148.91 119.52C145.431 114.209 140.485 110.124 134.293 108.45C130.71 107.495 127.104 106.673 123.522 105.718C121.923 105.304 120.349 104.884 118.872 104.188C117.449 103.506 116.394 102.621 115.294 101.514C114.903 101.107 115.5 100.394 115.935 100.766C118.702 102.992 121.989 103.879 125.329 104.782C129.05 105.785 132.878 106.689 136.532 107.989C142.041 109.957 146.942 113.95 149.539 119.211C149.753 119.629 149.168 119.903 148.91 119.52Z" fill="#AEB0A0"/>
<path d="M147.781 124.904C145.559 124.951 143.412 124.983 141.201 125.336C139.09 125.668 136.979 126.129 134.861 126.308C131.133 126.64 127.372 126.184 123.842 124.987C120.342 123.81 117.124 121.882 114.424 119.36C113.092 118.122 111.837 116.764 110.858 115.247C109.839 113.662 109.114 111.887 108.375 110.167C108.215 109.764 108.795 109.465 108.955 109.868C110.358 113.068 112.903 116.083 115.444 118.458C118.227 121.014 121.569 122.916 125.182 124.019C128.873 125.131 132.688 125.345 136.503 124.816C140.116 124.302 144.331 122.973 147.94 124.179C148.379 124.319 148.22 124.916 147.786 124.928L147.781 124.904Z" fill="#AEB0A0"/>
<path d="M111.225 125.101C111.469 126.282 113.638 127.348 114.621 127.89C115.837 128.562 117.165 129.033 118.497 129.4C121.3 130.182 124.252 130.317 127.133 130.109C130.369 129.878 133.548 129.249 136.728 128.748C140.055 128.216 143.413 127.833 146.747 127.454C147.372 127.376 147.575 128.36 146.949 128.438C143.158 128.834 139.372 129.255 135.601 129.878C132.052 130.455 128.508 131.057 124.912 131.156C121.927 131.232 118.836 130.92 116.046 129.827C114.768 129.347 113.557 128.699 112.444 127.902C111.598 127.281 110.178 126.368 110.418 125.164C110.484 124.74 111.104 124.638 111.201 125.106L111.225 125.101Z" fill="#AEB0A0"/>
<path d="M200.118 150.982C199.129 149.544 197.801 148.201 196.597 146.962C195.363 145.703 194.085 144.478 192.709 143.402C189.922 141.206 186.852 139.376 183.661 137.828C180.385 136.245 176.988 134.945 173.547 133.807C170.378 132.741 167.132 131.922 163.991 130.748C160.797 129.559 157.831 127.861 155.726 125.114C155.304 124.56 156.039 123.896 156.525 124.386C161.287 129.073 168.383 130.279 174.48 132.358C181.263 134.654 187.926 137.616 193.49 142.215C194.941 143.404 196.332 144.682 197.572 146.094C198.842 147.525 199.728 149.087 200.722 150.678C200.956 151.066 200.352 151.37 200.093 150.987L200.118 150.982Z" fill="#AEB0A0"/>
<path d="M155.577 121.784C163.985 124.874 173.108 124.585 181.88 125.703C189.359 126.65 197.723 128.903 202.783 134.914C203.195 135.419 202.479 136.054 202.023 135.584C189.447 123.092 170.312 129.188 155.267 122.643C154.733 122.42 155 121.595 155.553 121.789L155.577 121.784Z" fill="#AEB0A0"/>
<path d="M198.485 157.423C197.669 156.822 196.722 156.709 195.761 156.523C194.799 156.336 193.837 156.149 192.875 155.963C191.006 155.604 189.137 155.245 187.287 154.857C183.508 154.07 179.744 153.102 176.251 151.461C169.923 148.507 164.673 143.817 160.571 138.224C158.183 134.972 156.357 130.962 153.061 128.537C152.577 128.175 153.065 127.433 153.569 127.765C156.527 129.67 158.146 132.799 160.108 135.601C162.174 138.535 164.624 141.211 167.293 143.586C169.967 145.984 172.94 148.091 176.162 149.659C179.699 151.392 183.528 152.425 187.366 153.25C189.487 153.711 191.653 154.137 193.759 154.652C195.407 155.056 197.853 155.348 198.936 156.869C199.149 157.158 198.836 157.633 198.48 157.399L198.485 157.423Z" fill="#AEB0A0"/>
<path d="M151.564 117.305C152.108 116.706 152.065 115.253 152.134 114.469C152.228 113.552 152.237 112.601 152.251 111.675C152.251 109.931 152.098 108.193 151.995 106.444C151.753 103.031 151.684 99.5828 152.67 96.2761C153.622 93.0534 155.325 90.1122 157.102 87.2838C159.035 84.2181 161.179 81.6734 164.162 79.5968C165.733 78.5039 167.348 77.5043 169.022 76.5438C170.992 75.3944 172.93 74.0974 175.053 73.1983C175.619 72.9537 175.978 73.7005 175.482 74.0334C172.296 76.1259 168.972 78.0419 165.836 80.2523C162.838 82.3832 160.537 84.9091 158.584 88.0045C156.724 90.9269 154.938 93.9623 154.021 97.3572C153.105 100.752 153.421 104.278 153.598 107.755C153.698 109.607 153.783 111.513 153.601 113.372C153.456 114.787 153.306 116.921 152.09 117.864C151.712 118.147 151.281 117.672 151.589 117.3L151.564 117.305Z" fill="#AEB0A0"/>
<path d="M79.7956 76.325C89.0815 77.8237 93.7003 87.6705 93.6164 96.229C93.6006 96.8991 92.7604 97.303 92.2458 96.9217C90.1976 95.4455 88.1009 94.1076 85.8038 93.0418C83.6797 92.0687 81.434 91.377 79.2419 90.5717C75.1586 89.0531 71.6709 86.5654 69.8099 82.5114C68.9218 80.5655 68.5055 78.4197 68.582 76.3008C68.6159 75.3447 68.7287 74.3982 68.9501 73.4805C69.2148 72.4 70.2452 70.8027 69.8746 69.7505C69.5489 68.7916 69.0559 67.8928 68.804 66.9188C68.5072 65.8513 68.3631 64.7781 68.2877 63.6651C68.1811 61.4043 68.5572 59.121 69.4073 57.0222C71.3312 52.2912 75.9798 47.5889 74.3075 42.0854C74.0267 41.2199 75.1925 40.9028 75.7223 41.3579C81.0506 46.0571 84.4981 52.7083 85.4302 59.7237C86.2181 65.6659 85.6993 73.9804 79.9694 77.4178C79.4245 77.7609 78.9562 76.857 79.5062 76.5386C85.0689 73.1613 85.0044 64.5052 83.9031 58.9097C82.6744 52.5709 79.3203 46.747 74.4871 42.4588L75.9018 41.7313C77.2476 46.1479 74.867 50.2805 72.7107 54.0077C70.286 58.1749 69.0055 62.5426 70.3535 67.3434C70.6097 68.214 71.1866 69.1468 71.2214 70.063C71.2563 70.9792 70.5913 71.86 70.3055 72.714C69.5842 74.9401 69.465 77.35 69.9906 79.6528C71.0621 84.3567 74.6425 87.5435 79.0659 89.0947C81.4701 89.9332 83.9075 90.5597 86.2386 91.5416C88.6588 92.582 91.021 93.8396 93.1633 95.3989C92.6965 95.6233 92.2544 95.8426 91.7927 96.0916C91.8321 91.8001 90.7968 87.3965 88.2983 83.8586C86.1573 80.8114 83.0358 78.6073 79.5504 77.3759C78.9975 77.182 79.1298 76.2057 79.7659 76.3055L79.7956 76.325Z" fill="#AEB0A0"/>
<path d="M93.632 86.0974C101.128 89.1188 109.95 87.866 115.338 81.5238C118.142 78.2018 118.76 74.3553 119.18 70.165C119.408 67.9122 119.666 65.6788 119.92 63.4209C120 62.8144 120.359 61.8171 119.725 61.3576C119.453 61.1572 118.651 61.2455 118.36 61.2029C117.132 61.0966 115.93 60.9853 114.702 60.879C114.362 60.8465 114.015 60.5331 114.067 60.1633C114.281 58.7087 114.56 56.7018 114.015 55.3008C114.052 54.9853 113.908 54.7841 113.617 54.7414C113.419 54.5258 113.188 54.5222 113.007 54.7647C112.736 54.8204 112.447 55.0339 112.206 55.1092C111.606 55.3097 111.015 55.4314 110.404 55.4546C107.4 55.5605 104.446 54.2965 101.425 54.0724C95.4114 53.6438 89.423 55.8264 86.2364 61.1509C85.7632 61.9665 84.6501 61.1698 85.0495 60.3694C88.1521 54.1388 95.6877 51.9967 102.175 52.6098C103.979 52.7768 105.711 53.2152 107.487 53.6188C108.345 53.8011 109.228 53.9784 110.1 53.9783C111.258 53.9963 112.014 53.5584 113.047 53.2174C116.288 52.1395 115.655 58.6564 115.423 60.2689C115.22 60.0286 115.016 59.7884 114.813 59.5481C115.882 59.6356 116.957 59.7476 118.027 59.8351C118.84 59.9241 119.894 59.8096 120.674 60.1106C122.289 60.727 121.588 63.1797 121.463 64.4368C121.121 68.3802 121.026 72.5292 119.999 76.3829C118.171 83.3255 111.367 88.3949 104.405 89.2133C100.476 89.6892 96.6783 88.9325 93.3064 86.8826C92.8664 86.6142 93.2216 85.8485 93.7007 86.0576L93.632 86.0974Z" fill="#AEB0A0"/>
<path d="M115.715 82.4437C118.958 80.006 123.832 81.1309 126.924 83.3155C130.56 85.9009 132.441 90.0533 133.293 94.315C133.465 95.1516 132.211 95.4101 132.014 94.5786C131.13 90.9132 129.315 87.0806 126.247 84.7629C124.822 83.6971 123.103 82.9482 121.333 82.6972C119.563 82.4463 117.85 82.7222 116.128 83.205C115.715 83.3158 115.381 82.692 115.74 82.4387L115.715 82.4437Z" fill="#AEB0A0"/>
<path d="M111.158 108.473C109.715 108.565 108.259 108.967 106.795 108.833C105.385 108.713 104.028 108.223 102.871 107.461C102.218 107.031 102.882 106.022 103.535 106.452C104.633 107.175 105.891 107.557 107.192 107.648C108.513 107.71 110.047 107.188 111.322 107.772C111.717 107.947 111.597 108.485 111.163 108.497L111.158 108.473Z" fill="#AEB0A0"/>
<path d="M93.254 95.0937C95.4599 95.7166 97.647 96.4972 99.478 97.9155C101.314 99.3584 102.483 101.298 103.171 103.516C104.661 108.262 105.318 113.692 103.197 118.336C102.949 118.874 102.383 118.991 101.942 118.594C99.2329 116.151 96.4465 113.955 92.8641 113C89.6617 112.146 86.3103 111.939 83.1947 110.76C80.5828 109.784 78.041 108.153 76.6816 105.663C74.9988 102.599 75.6831 99.072 76.3985 95.8211C76.6569 96.2039 76.9102 96.5621 77.144 96.95C66.1149 97.3237 60.1385 80.1387 68.9641 73.5501C69.3859 73.2323 69.9411 73.8105 69.5293 74.1775C62.3632 80.6038 67.0903 95.5839 77.2473 95.2102C77.8581 95.187 78.0985 95.8557 77.9928 96.3391C77.2919 99.5357 76.6329 103.185 78.915 105.921C80.7606 108.158 83.5802 109.27 86.3188 109.988C89.2744 110.764 92.3118 111.19 95.1661 112.346C98.0502 113.522 100.51 115.503 102.911 117.446C102.527 117.576 102.168 117.701 101.785 117.831C103.588 113.51 103.009 108.833 101.762 104.396C101.148 102.163 100.038 100.262 98.1581 98.8542C96.5499 97.6466 94.6335 96.8101 92.83 95.8992C92.3407 95.6409 92.7604 94.9388 93.2489 95.0691L93.254 95.0937Z" fill="#AEB0A0"/>
<path d="M80.1832 76.5288C83.1154 74.9501 86.4719 74.31 89.7002 73.6707C93.1449 72.9612 96.6049 72.3254 99.9084 71.0551C105.822 68.7597 110.476 64.9541 114.394 60.0687C114.825 59.544 115.705 60.0809 115.314 60.6744C111.993 65.7189 106.661 69.8437 101.112 72.1665C97.9713 73.4803 94.6351 74.2188 91.3084 74.8784C87.6668 75.6285 84.0651 76.4473 80.459 77.3697C79.9669 77.471 79.7512 76.7973 80.1636 76.5584L80.1832 76.5288Z" fill="#AEB0A0"/>
<path d="M82.4521 74.4217C83.9052 73.5068 84.8863 71.9197 85.9479 70.5981C86.843 69.4647 87.7924 68.3458 88.7765 67.271C90.8475 64.9977 93.127 62.9892 95.714 61.3535C101.089 57.9378 107.961 57.8048 113.073 53.8536C113.671 53.3969 114.464 54.2595 113.866 54.7162C108.868 58.7209 102.051 58.9965 96.5659 62.127C93.7176 63.7397 91.2775 66.089 89.0791 68.4912C87.0913 70.6704 85.4278 73.5523 82.7807 75.0209C82.3877 75.2301 82.0837 74.6258 82.4716 74.392L82.4521 74.4217Z" fill="#AEB0A0"/>
<path d="M86.0611 79.856C89.2439 79.8672 92.4862 80.7896 95.6516 81.2149C98.7628 81.6256 101.966 81.7354 105.036 80.9491C107.889 80.2331 110.541 78.7891 112.886 76.9724C115.236 75.1803 117.115 72.9722 119.172 70.8812C119.682 70.3659 120.504 71.1199 120.108 71.6888C116.825 76.5458 111.375 80.7206 105.699 82.3002C102.521 83.1856 99.2442 83.0911 95.9803 82.6861C94.2398 82.4547 92.5087 82.1444 90.7971 81.8044C89.1695 81.4985 87.4435 81.2128 85.8933 80.66C85.4489 80.495 85.603 79.8734 86.0416 79.8856L86.0611 79.856Z" fill="#AEB0A0"/>
<path d="M139.929 132.576C129.767 144.006 114.221 148.85 99.6693 151.796C90.9098 153.6 82.0237 154.789 73.2795 156.667C64.8059 158.49 56.5582 161.035 48.7064 164.755C44.5251 166.745 40.4734 168.99 36.6054 171.506C32.9828 173.842 28.8291 176.339 26.5599 180.141C26.1938 180.729 25.1466 180.253 25.4483 179.601C30.7462 168.711 40.0065 160.622 49.8163 153.831C60.4112 146.493 71.8928 139.973 80.4531 130.105C84.8288 125.074 88.2246 119.27 90.0499 112.816C90.3205 111.888 91.6782 112.378 91.4568 113.295C88.8518 124.681 80.4795 133.844 71.5331 140.842C61.1988 148.947 49.38 155.075 39.4778 163.784C34.2669 168.371 29.6119 173.664 26.6279 179.973C26.2574 179.793 25.8868 179.613 25.5163 179.433C27.3303 176.161 30.4065 173.911 33.4096 171.805C36.771 169.445 40.2713 167.262 43.9011 165.335C51.2984 161.4 59.1546 158.448 67.267 156.367C83.8609 152.128 101.307 151.279 117.422 145.215C125.465 142.173 133.062 137.838 139.335 131.93C139.722 131.568 140.228 132.156 139.895 132.532L139.929 132.576Z" fill="#AEB0A0"/>
<path d="M135.777 134.738C131.27 138.385 125.968 140.914 120.645 143.087C115.248 145.276 109.591 146.826 103.917 148.046C91.4431 150.744 78.6924 151.601 66.1373 153.905C62.6035 154.555 59.1849 155.516 55.9219 156.983C52.6784 158.421 49.5992 160.158 46.5252 161.92C45.9506 162.243 45.3346 161.37 45.8643 160.953C60.1382 149.933 77.4568 141.493 87.294 125.744C89.7788 121.744 91.6557 117.408 92.6293 112.796C92.7776 112.021 93.9377 112.423 93.7894 113.198C90.0481 130.897 74.6729 142.297 60.6174 151.887C55.8964 155.116 51.1702 158.321 46.6626 161.84L46.0018 160.873C51.1825 157.883 56.4225 154.931 62.272 153.444C68.4905 151.881 75.0052 151.257 81.3461 150.413C93.6241 148.756 105.966 147.034 117.678 142.878C123.942 140.664 129.704 137.631 135.374 134.154C135.713 133.931 136.11 134.49 135.777 134.738Z" fill="#AEB0A0"/>
<path d="M218.71 140.231C217.427 139.854 216.191 139.21 214.937 138.725C213.629 138.225 212.301 137.755 210.963 137.363C208.283 136.556 205.531 136.02 202.751 135.721C202.041 135.636 202.098 134.547 202.828 134.602C205.677 134.861 208.479 135.387 211.213 136.209C212.55 136.6 213.878 137.071 215.167 137.6C216.486 138.149 217.883 138.708 218.992 139.608C219.299 139.853 219.095 140.356 218.685 140.236L218.71 140.231Z" fill="#AEB0A0"/>
<path d="M219.487 137.553C216.757 136.627 214.032 135.727 211.215 135.127C208.35 134.538 205.421 134.269 202.495 134.256C201.775 134.25 201.858 133.156 202.572 133.137C208.42 133.138 214.585 134.177 219.774 136.955C220.09 137.121 219.837 137.635 219.506 137.523L219.487 137.553Z" fill="#AEB0A0"/>
<path d="M176.259 117.714C179.574 115.005 183.819 113.951 187.898 112.957C192.488 111.832 197.139 111.002 201.775 110.098C209.866 108.534 218.919 107.157 225.112 101.239C225.734 100.649 226.632 101.644 226.01 102.234C220.017 107.88 211.66 109.524 203.865 111.027C199.229 111.931 194.578 112.761 189.972 113.812C187.719 114.327 185.5 114.887 183.272 115.525C181.019 116.169 178.688 116.931 176.759 118.278C176.357 118.566 175.861 118.027 176.259 117.714Z" fill="#AEB0A0"/>
<path d="M180.207 113.948C186.688 110.049 194.209 109.577 201.545 108.707C205.223 108.257 208.94 107.748 212.5 106.604C216.469 105.325 219.865 103.138 223.172 100.636C223.638 100.283 224.268 100.974 223.801 101.327C220.746 103.675 217.59 105.787 213.961 107.098C210.431 108.39 206.696 109.057 202.993 109.511C195.421 110.481 187.412 110.823 180.531 114.523C180.163 114.727 179.893 114.167 180.237 113.968L180.207 113.948Z" fill="#AEB0A0"/>
<path d="M241.864 94.6527C242.097 95.7845 241.062 96.6133 240.273 97.2632C239.003 98.3199 237.505 99.1415 235.996 99.7857C233.022 101.039 229.75 101.713 226.524 101.865C223.268 101.997 220.586 100.805 218.11 98.7503C215.63 96.6706 213.124 94.3398 211.246 91.7C210.566 90.7629 209.564 89.6354 210.415 88.5368C211.354 87.3687 212.76 86.8482 213.363 85.416C213.951 84.038 214.312 82.5529 214.876 81.18C215.479 79.7478 216.16 78.3249 216.995 77.0244C220.267 71.862 226.331 68.3044 232.382 71.0336C238.492 73.8019 242.952 79.8856 243.832 86.5269C243.956 87.5017 242.504 87.8007 242.331 86.836C241.683 82.8145 239.868 79.1101 237.013 76.2098C234.06 73.2017 229.976 70.811 225.642 71.8065C221.336 72.8215 218.242 76.2289 216.373 80.1023C215.491 81.9254 214.995 83.8743 214.222 85.7263C213.576 87.3214 211.772 88.0265 211.368 89.6744L211.221 88.9608C212.969 91.3452 214.858 93.5465 217.018 95.564C219.054 97.4787 221.288 99.609 224.134 100.1C226.93 100.601 230.07 100.032 232.796 99.3163C234.276 98.9087 235.756 98.3731 237.127 97.6804C237.893 97.2917 241.112 95.8592 240.953 94.8402C240.837 94.2743 241.698 94.0969 241.839 94.6578L241.864 94.6527Z" fill="#AEB0A0"/>
<path d="M236.203 74.0143C233.394 73.0795 231.706 70.8623 230.567 68.1985C229.374 65.3921 228.627 62.2629 228.747 59.2371C229.044 52.5842 234.417 48.7843 239.731 45.8174C241.017 45.0907 242.453 44.4616 243.952 44.7684C244.544 44.9029 245.132 45.1409 245.572 45.5375C246.073 45.9731 246.155 46.623 246.581 47.0738C247.196 47.6911 248.685 47.0765 249.409 46.9787C250.231 46.8607 251.088 46.7868 251.93 46.7672C253.053 46.741 255.21 46.502 255.906 47.641C256.26 48.2351 255.982 48.8822 255.907 49.5132C255.771 50.593 256.117 51.6503 256.62 52.5983C257.451 54.1454 258.617 55.4444 259.468 56.9619C261.105 59.8051 261.937 63.0964 262.02 66.3624C262.183 73.3823 258.408 79.9567 252.472 83.6415C251.608 84.1786 250.881 82.7638 251.745 82.2268C256.404 79.3178 259.686 74.3327 260.305 68.8702C260.652 65.8234 260.24 62.7022 259.09 59.861C258.51 58.4159 257.754 57.1097 256.875 55.8288C256.07 54.6608 255.245 53.5226 254.789 52.1801C254.584 51.5556 254.447 50.8913 254.414 50.2313C254.411 49.7189 254.794 48.7165 254.353 48.32C254.071 48.0704 252.584 48.1971 252.224 48.1943C251.298 48.1799 250.367 48.269 249.447 48.4073C248.428 48.5659 247.174 49.0805 246.176 48.5936C245.035 48.0336 245.007 46.5261 243.611 46.3518C242.113 46.1732 240.582 47.3349 239.369 48.0464C238.181 48.7528 237.017 49.4542 235.904 50.2735C233.745 51.8724 231.766 53.8446 230.919 56.4558C229.892 59.5656 230.493 62.9814 231.432 66.0454C232.291 68.8439 233.782 71.9737 236.426 73.4809C236.747 73.6712 236.489 74.1605 236.158 74.049L236.203 74.0143Z" fill="#AEB0A0"/>
<path d="M258.955 76.2277C260.747 74.2172 263.514 73.0829 266.077 72.4523C268.832 71.7566 271.778 71.7396 274.555 72.2706C280.859 73.4858 285.505 77.8637 289.317 82.7982C290.325 84.0784 291.249 85.4526 291.987 86.9165C292.63 88.1692 293.487 89.8394 293.5 91.273C293.516 92.4751 292.698 93.2336 291.701 93.7468C291.19 94.0059 290.634 94.1717 290.163 94.4996C289.402 95.041 289.259 95.8399 289.235 96.7171C289.195 98.3924 289.175 100.038 288.899 101.685C288.665 103.041 288.483 104.772 287.607 105.876C286.688 107.014 285.058 107.196 283.725 107.573C281.866 108.135 280.091 108.86 278.287 109.565C274.728 110.965 270.977 112.302 267.103 112.048C263.697 111.827 260.397 110.249 258.17 107.656C257.56 106.935 258.604 106.027 259.253 106.689C261.275 108.786 263.85 110.205 266.783 110.498C270.081 110.819 273.318 109.845 276.366 108.704C279.296 107.613 282.152 106.538 285.142 105.614C285.964 105.368 286.454 105.01 286.789 104.146C287.061 103.474 287.18 102.68 287.314 101.96C287.61 100.412 287.7 98.8543 287.706 97.2629C287.69 96.1889 287.713 95.0556 288.318 94.1357C288.885 93.2752 289.829 92.8756 290.708 92.4124C291.268 92.1431 291.764 91.9383 291.829 91.258C291.879 90.5039 291.411 89.6 291.116 88.9169C290.487 87.4819 289.696 86.1315 288.822 84.8753C285.568 80.2874 281.32 75.7249 275.739 74.1557C273.039 73.378 270.141 73.2567 267.395 73.7454C264.477 74.2696 262.045 75.5399 259.417 76.8508C258.975 77.0701 258.656 76.5201 258.945 76.1785L258.955 76.2277Z" fill="#AEB0A0"/>
<path d="M241.526 94.596C242.836 94.4801 244.06 94.8179 245.322 95.0964C246.748 95.4183 248.149 95.7453 249.498 96.314C251.607 97.2134 253.487 98.6215 254.98 100.392C258.442 104.5 259.518 109.973 258.75 115.21C258.689 115.658 258.306 115.917 257.847 115.806C255.735 115.266 253.581 115.018 251.413 115.079C249.271 115.136 247.18 115.695 245.048 115.929C241.537 116.318 238.084 115.491 235.737 112.691C235.43 112.318 235.274 111.812 234.712 111.825C234.456 111.826 234.02 112.198 233.764 112.328C232.944 112.702 232.073 112.958 231.167 113.042C229.631 113.179 228.106 112.75 226.942 111.707C224.075 109.117 224.578 104.961 225.372 101.591C225.506 100.999 226.517 101.176 226.442 101.807C226.061 104.938 225.412 110.381 229.547 111.401C230.44 111.628 231.385 111.484 232.255 111.228C233.028 110.992 233.67 110.501 234.413 110.245C235.903 109.759 236.503 111.302 237.375 112.174C240.2 115.055 243.972 114.688 247.644 114.214C251.243 113.755 254.766 113.799 258.303 114.532C258.008 114.721 257.719 114.935 257.4 115.129C257.865 110.288 256.86 105.16 253.621 101.39C252.202 99.7325 250.421 98.4322 248.387 97.6457C246.13 96.7768 243.434 96.6395 241.392 95.3161C241.125 95.1402 241.176 94.6423 241.531 94.6206L241.526 94.596Z" fill="#AEB0A0"/>
<path d="M241.398 91.3133C237.429 88.2322 232.356 86.7636 227.373 87.3538C224.719 87.6696 222.147 88.3791 219.559 89.0147C216.971 89.6504 214.172 90.3808 211.49 90.0612C210.859 89.986 210.705 88.9917 211.404 88.899C214.348 88.4978 217.208 88.0626 220.091 87.3661C222.876 86.6899 225.675 85.9594 228.566 85.8C233.59 85.5346 238.325 87.2269 241.941 90.714C242.263 91.0324 241.769 91.6216 241.403 91.3379L241.398 91.3133Z" fill="#AEB0A0"/>
<path d="M213.124 91.597C217.136 95.3874 222.713 95.3159 227.736 94.0505C232.149 92.9363 237.449 91.0238 241.958 92.8652C242.516 93.0837 242.24 93.8588 241.677 93.7438C238.856 93.1195 236.211 93.2283 233.426 93.9045C230.784 94.5256 228.222 95.4124 225.549 95.8859C223.128 96.3334 220.606 96.4169 218.227 95.7014C215.986 95.0343 214.279 93.7188 212.683 92.0726C212.386 91.7491 212.861 91.3177 213.178 91.6115L213.124 91.597Z" fill="#AEB0A0"/>
<path d="M241.145 89.3112C239.245 85.3166 235.603 81.8345 231.612 80.0148C229.488 79.0417 227.194 78.4882 224.882 78.3488C223.635 78.2722 222.354 78.2795 221.104 78.4345C219.927 78.5743 218.771 78.9406 217.57 79.0855C217.117 79.1275 216.902 78.5818 217.314 78.343C219.328 77.1588 222.307 76.9299 224.608 77.0201C227.22 77.1233 229.816 77.7686 232.172 78.8735C236.658 80.9761 239.821 84.5053 241.773 89.0022C241.963 89.4248 241.334 89.7339 241.145 89.3112Z" fill="#AEB0A0"/>
<path d="M245.676 85.8844C248.665 79.7284 247.543 73.0343 246.289 66.5726C245.156 60.7013 243.727 53.6346 246.873 48.1132C247.229 47.4756 248.207 47.9923 247.984 48.6537C247.456 50.1989 246.987 51.655 246.814 53.3065C246.645 54.8545 246.58 56.4068 246.668 57.9533C246.836 61.5096 247.659 65.0078 248.325 68.4873C249.403 74.344 250.072 81.0801 246.382 86.2006C246.142 86.5321 245.5 86.2796 245.7 85.8793L245.676 85.8844Z" fill="#AEB0A0"/>
<path d="M249.563 82.1145C252.559 77.8553 252.857 72.3305 252.695 67.311C252.562 62.1829 251.809 56.2849 254.162 51.517C254.488 50.8598 255.447 51.4061 255.244 52.0379C254.412 54.851 253.915 57.5439 253.878 60.4756C253.835 63.2546 254.023 66.0372 254.034 68.8306C254.053 71.289 253.871 73.7634 253.283 76.1415C252.686 78.5985 251.639 80.6097 249.974 82.4915C249.744 82.7441 249.363 82.3866 249.539 82.1195L249.563 82.1145Z" fill="#AEB0A0"/>
<path d="M244.628 84.1044C244.661 80.4041 243.826 76.4724 242.289 73.1211C240.867 70.0795 238.689 67.4759 237.592 64.2649C235.653 58.7137 236.125 52.5376 238.934 47.368C239.363 46.5871 240.471 47.3592 240.091 48.1299C237.397 53.4812 237.218 60.0842 239.752 65.5384C241.164 68.5308 243.233 71.1055 244.315 74.2426C244.881 75.8702 245.305 77.5527 245.477 79.2613C245.669 80.9403 245.55 82.4781 245.353 84.1347C245.291 84.5834 244.64 84.5379 244.653 84.0993L244.628 84.1044Z" fill="#AEB0A0"/>
</svg>
