<svg width="593" height="688" viewBox="0 0 593 688" fill="none" xmlns="http://www.w3.org/2000/svg">
<path d="M273.114 166.038C265.701 161.255 255.504 163.003 247.934 166.5C238.947 170.64 231.621 177.795 224.853 184.876C223.883 185.911 224.765 188.024 226.278 187.777C234.543 186.303 241.628 188.43 248.136 193.758C253.727 198.347 258.694 203.502 265.735 205.84C278.808 210.081 292.775 204.894 300.344 193.562C299.436 193.757 298.482 193.929 297.574 194.123C306.102 201.018 318.59 202.42 328.409 197.527C338.877 192.255 344.626 180.846 343.612 169.383C343.559 168.66 342.901 168.107 342.179 168.16C330.945 168.822 319.593 169.252 308.453 167.348C303.268 166.439 298.235 164.27 293.007 163.804C288.597 163.448 284.271 164.7 280.679 167.181C279.058 168.362 280.736 170.865 282.382 169.754C286.6 166.941 291.212 166.409 296.072 167.507C301.19 168.673 306.146 170.05 311.374 170.632C321.668 171.774 332.04 171.214 342.343 170.793C341.849 170.378 341.356 169.963 340.909 169.57C341.56 179.522 335.683 189.765 326.77 194.23C318.111 198.53 307.559 197.204 299.928 191.444C298.965 190.683 297.779 190.973 297.158 192.005C289.736 203.989 273.894 208.144 261.633 201.05C255.491 197.468 251.054 191.586 244.865 187.981C239.403 184.79 232.324 183.362 226.037 184.352C226.489 185.327 227.011 186.278 227.463 187.254C233.84 180.853 240.192 174.149 248.409 170.04C256.162 166.169 264.273 165.722 272.525 167.955C273.694 168.294 273.982 166.636 273.137 166.107L273.114 166.038Z" fill="#AEB0A0"/>
<path d="M300.665 166.909C307.323 165.636 313.612 162.384 319.506 159.229C325.702 155.931 331.637 152.1 337.218 147.805C341.224 144.714 346.234 139.211 341.897 134.191C340.012 131.993 336.923 130.832 334.392 129.479C333.409 128.998 332.051 128.451 331.806 127.171C331.659 126.402 331.931 125.491 332.064 124.743C332.283 123.225 332.48 121.755 332.583 120.238C333.115 109.53 328.151 97.1231 318.84 91.2384C313.305 87.7211 308.358 89.8882 303.186 92.99C297.087 96.6833 291.226 100.957 286.26 106.133C280.97 111.614 276.81 118.228 274.825 125.615C272.727 133.352 273.848 141.27 275.248 148.976C275.543 150.629 278.106 150.489 277.904 148.765C277.171 142.546 276.298 136.258 277.244 130.046C278.234 123.508 281.256 117.441 285.29 112.274C289.162 107.319 293.975 103.171 299.118 99.533C301.505 97.8556 303.962 96.2709 306.466 94.709C309.133 93.0524 311.895 91.6748 315.098 92.6017C320.242 94.0705 324.371 99.3961 326.697 103.899C329.284 108.819 330.455 114.498 330.062 120.051C329.896 122.291 329.076 124.444 329.027 126.683C328.91 129.179 330.322 130.565 332.315 131.83C334.473 133.232 337.982 134.483 339.402 136.685C341.412 139.815 337.826 142.879 335.627 144.648C330.208 148.848 324.413 152.632 318.405 156.021C312.466 159.386 306.029 161.87 300.114 165.305C299.395 165.708 299.78 167.057 300.665 166.909Z" fill="#AEB0A0"/>
<path d="M276.376 127.188C275.52 115.163 266.905 103.699 256.822 97.6116C251.593 94.4179 245.349 92.4695 239.2 93.1784C236.731 93.4807 233.961 94.0423 232.112 95.808C229.661 98.0923 229.296 101.57 229.161 104.696C229.855 104.107 230.503 103.494 231.197 102.905C225.517 101.465 219.497 100.96 213.675 101.829C211.113 102.202 207.899 102.604 205.603 103.978C203.261 105.445 203.169 108.127 203.471 110.596C205.001 122.312 207.849 135.484 218.174 142.619C219.91 143.815 222.103 141.347 220.367 140.15C211.825 134.235 208.956 123.955 207.259 114.246C206.839 111.662 205.284 107.362 208.373 106.028C210.51 105.099 213.165 104.772 215.472 104.564C220.481 104.052 225.359 104.521 230.131 106.156C231.066 106.497 232.439 106.182 232.591 104.921C232.866 101.864 233.093 98.5507 236.416 97.3311C238.74 96.4938 241.514 96.3986 243.989 96.6792C249.17 97.2382 254.088 99.5253 258.197 102.636C266.58 108.995 271.162 117.908 274.7 127.529C275.059 128.459 276.525 128.189 276.446 127.164L276.376 127.188Z" fill="#AEB0A0"/>
<path d="M272.905 160.309C263.744 147.824 248.818 139.892 233.392 138.563C225.551 137.865 218.711 139.63 212.128 143.957C205.175 148.568 198.648 153.967 192.497 159.666C189.954 162.021 186.76 164.639 190.261 167.568C193.88 170.613 198.238 172.975 202.592 174.755C202.376 174.127 202.161 173.499 201.921 172.802C200.384 175.591 199.691 178.792 199.93 181.984C200.139 184.524 200.946 188.574 203.314 190.022C204.651 190.849 206.187 190.555 207.655 190.402C209.891 190.101 212.126 189.801 214.385 189.454C218.88 188.807 223.326 188.02 227.797 187.303C229.613 187.03 229.447 184.164 227.584 184.414C221.156 185.219 214.774 186.046 208.393 186.99C206.46 187.265 204.902 187.722 203.95 185.632C203.45 184.517 203.09 183.354 202.939 182.12C202.587 179.278 203.168 176.545 204.567 174.037C204.888 173.381 204.622 172.381 203.897 172.084C201.673 171.172 199.518 170.119 197.432 168.925C196.354 168.282 191.925 165.944 192.053 164.614C192.073 164.217 193.764 163.012 194.065 162.753C194.943 161.906 195.798 161.105 196.724 160.281C198.62 158.538 200.587 156.887 202.554 155.237C209.127 149.861 216.692 143.169 225.378 141.901C233.622 140.707 242.479 142.888 250.041 146.177C258.118 149.717 265.327 155.155 271.308 161.56C272.155 162.438 273.612 161.119 272.904 160.193L272.905 160.309Z" fill="#AEB0A0"/>
<path d="M271.998 165.955C269.354 167.448 267.068 169.987 265.084 172.267C263.053 174.641 261.164 177.2 259.557 179.896C256.411 185.265 254.53 191.252 254.261 197.503C254.181 198.973 256.511 198.835 256.544 197.343C256.77 191.418 258.724 185.757 261.779 180.692C263.295 178.183 265.046 175.789 266.985 173.603C268.923 171.416 271.238 169.53 273.059 167.228C273.659 166.476 272.787 165.528 271.975 166.002L271.998 165.955Z" fill="#AEB0A0"/>
<path d="M277.26 170.735C276.304 173.286 276.143 176.109 275.818 178.793C275.517 181.664 275.334 184.534 275.383 187.402C275.411 193.045 276.255 198.68 278.332 203.931C278.999 205.534 281.51 204.672 280.912 203.045C278.861 197.98 278.112 192.624 278.039 187.191C278.015 184.51 278.107 181.827 278.269 179.121C278.431 176.415 278.872 173.612 278.52 170.887C278.445 170.328 277.51 169.987 277.306 170.642L277.26 170.735Z" fill="#AEB0A0"/>
<path d="M282.895 171.574C282.961 173.695 283.749 175.764 284.536 177.715C285.394 179.759 286.462 181.732 287.691 183.609C290.339 187.573 293.612 191.087 296.977 194.414C298.318 195.708 300.234 193.569 298.916 192.228C295.716 189.039 292.608 185.78 290.079 182.049C288.944 180.333 287.902 178.547 286.999 176.713C286.096 174.879 285.379 172.904 284.336 171.118C283.886 170.376 282.888 170.875 282.872 171.621L282.895 171.574Z" fill="#AEB0A0"/>
<path d="M286.715 169.546C289.891 172.549 292.625 175.742 296.285 178.227C300.086 180.781 304.162 182.772 308.466 184.295C317.005 187.365 326.068 189.008 335.079 190.162C336.947 190.378 337.481 187.622 335.613 187.289C326.783 185.644 317.865 184.419 309.442 181.348C305.441 179.916 301.554 178.132 298.013 175.879C294.377 173.581 291.18 170.742 287.568 168.396C286.864 167.936 286.221 169.015 286.762 169.569L286.715 169.546Z" fill="#AEB0A0"/>
<path d="M279.832 164.046C281.782 157.919 283.706 151.606 286.428 145.798C289.013 140.271 292.746 135.364 297.137 131.126C305.944 122.605 317.134 117.163 328.307 112.467C330.142 111.681 329.183 108.775 327.301 109.538C315.569 114.309 303.963 120.128 294.74 129.026C290.255 133.334 286.501 138.405 283.823 144.003C280.803 150.303 279.487 156.914 278.337 163.78C278.159 164.738 279.514 164.935 279.832 164.046Z" fill="#AEB0A0"/>
<path d="M283.576 162.566C287.632 159.847 291.026 156.225 294.893 153.182C298.759 150.139 302.814 147.303 307.059 144.793C311.303 142.283 315.689 139.957 320.195 137.981C324.84 135.957 329.701 134.56 334.418 132.745C335.696 132.267 335.396 130.031 333.929 130.301C328.925 131.279 323.977 133.329 319.308 135.401C314.71 137.448 310.183 139.704 305.87 142.355C301.465 145.077 297.202 148.101 293.174 151.355C289.424 154.398 285.373 157.699 282.776 161.827C282.477 162.319 283.158 162.826 283.552 162.496L283.576 162.566Z" fill="#AEB0A0"/>
<path d="M277.002 147.742C279.866 142.236 281.654 136.204 284.518 130.698C287.313 125.216 290.717 120.031 294.685 115.355C298.192 111.265 302.169 107.521 306.548 104.38C311.158 101.12 316.082 99 321.215 96.6914C322.701 96.0249 322.005 93.8859 320.4 94.3203C315.096 95.6745 309.878 98.7534 305.429 101.919C300.819 105.179 296.633 108.994 292.964 113.295C288.926 117.996 285.43 123.251 282.565 128.757C279.539 134.474 276.45 140.915 275.669 147.381C275.56 148.198 276.66 148.561 277.026 147.812L277.002 147.742Z" fill="#AEB0A0"/>
<path d="M290.483 347.121C291.731 340.767 293.259 334.433 295.372 328.328C297.394 322.527 299.884 316.838 302.258 311.15C306.48 301.084 311.702 290.753 313.422 279.871C314.989 270.133 312.458 261.062 305.723 253.824C298.281 245.777 287.718 240.674 278.227 235.514C275.11 233.816 271.97 232.166 268.807 230.563C266.09 229.235 263.039 227.047 260.005 226.725C254.053 226.08 254.303 233.05 251.675 236.408C252.163 236.241 252.582 236.097 253.07 235.929C250.124 235.07 247.202 234.281 244.303 233.444C242.152 232.857 239.67 231.761 237.391 232.388C235.693 232.893 234.445 234.14 233.572 235.571C232.032 238.01 230.983 240.631 229.256 242.979C225.939 247.509 222.667 251.83 220.57 257.072C218.7 261.73 217.626 266.66 217.252 271.7C215.834 292.653 227.843 310.592 244.551 322.122C254.266 328.843 265.208 334.596 271.969 344.631C273.104 346.346 275.722 344.55 274.565 342.882C263.785 326.82 243.494 321.316 231.651 306.243C219.502 290.847 216.155 269.075 226.655 251.863C228.31 249.19 230.363 246.769 232.135 244.212C233.655 242.052 234.683 239.711 236.015 237.461C237.875 234.366 240.38 235.415 243.349 236.228C246.411 237.086 249.474 237.944 252.582 238.709C253.049 238.821 253.677 238.605 253.977 238.23C255.128 236.587 255.671 234.763 256.4 232.914C256.741 231.978 257.127 230.832 257.89 230.102C259.279 228.924 260.942 229.795 262.347 230.482C267.547 233.022 272.702 235.774 277.788 238.549C286.576 243.366 296.041 248.223 302.988 255.622C309.887 262.997 311.65 272.215 309.453 281.936C307.19 292.03 302.334 301.612 298.433 311.138C293.642 322.724 288.965 334.076 288.451 346.766C288.369 348.003 290.328 348.032 290.551 346.864L290.483 347.121Z" fill="#AEB0A0"/>
<path d="M234.226 310.349C224.299 298.36 205.822 294.844 191.231 298.102C184.134 299.682 177.331 302.916 171.636 307.445C168.881 309.638 165.572 312.49 164.461 315.951C163.327 319.459 166.289 322.067 168.456 324.403C169.799 325.93 171.234 327.386 172.693 328.795C173.752 329.834 174.217 329.714 173.366 330.981C172.767 331.849 172.192 332.67 171.64 333.561C169.457 337.079 167.676 341.199 166.967 345.263C166.393 348.813 167.352 351.719 169.893 354.237C173 357.38 176.663 360.099 180.139 362.842C186.974 368.329 194.045 374.048 202.077 377.682C209.827 381.179 218.2 381.383 226.519 380.748C234.978 380.064 243.354 378.122 250.445 373.231C257.954 368.079 263.811 360.844 271.885 356.433C273.788 355.389 271.92 352.562 270.017 353.605C263.845 356.972 258.924 361.937 253.648 366.439C248.072 371.2 241.97 374.661 234.732 376.172C227.75 377.635 219.943 378.172 212.869 377.211C204.581 376.121 197.474 371.545 190.855 366.802C187.592 364.453 184.421 361.917 181.32 359.357C178.383 356.935 175.19 354.562 172.46 351.836C169.142 348.531 170.457 344.415 172.007 340.53C172.714 338.728 173.538 337.042 174.525 335.377C175.398 333.947 176.994 332.463 177.445 330.827C178.282 327.928 174.554 325.7 172.859 323.943C171.541 322.603 170.315 321.191 169.09 319.78C167.322 317.698 167.938 316.2 169.552 314.203C173.91 308.846 180.568 305.078 186.96 302.805C194.306 300.243 202.181 299.565 209.818 300.917C218.577 302.47 225.752 306.788 233.025 311.619C233.822 312.125 234.814 310.926 234.225 310.232L234.226 310.349Z" fill="#AEB0A0"/>
<path d="M261.012 360.981C249.294 374.986 239.186 391.75 240.385 410.674C240.9 418.644 244.271 425.166 251.049 429.465C254.99 431.971 259.343 433.75 263.511 435.671C268.077 437.728 272.573 439.809 277.139 441.866C280.605 443.443 284.781 446.297 288.228 443.28C292.114 439.84 295.359 435.101 298.563 431.037L296.233 431.175C299.24 433.689 302.683 435.314 306.561 436.048C307.261 436.158 308.074 435.801 308.395 435.145C314.206 422.896 328.525 415.444 329.629 400.953C330.604 387.676 321.572 376.589 312.194 368.466C308.903 365.581 305.498 362.931 302.161 360.14C299.036 357.51 295.467 354.837 294.194 350.791C293.593 348.815 290.642 349.868 291.196 351.822C292.163 355.66 295.01 358.386 297.924 360.854C301.544 364.016 305.325 366.966 309.014 370.104C315.595 375.757 321.832 382.113 324.799 390.411C327.767 398.708 326.23 406.604 320.976 413.554C315.839 420.386 309.127 425.928 305.42 433.75C306.024 433.464 306.651 433.132 307.254 432.847C303.961 432.224 301.08 430.874 298.519 428.752C297.861 428.199 296.718 428.163 296.189 428.89C293.652 432.061 291.07 435.21 288.393 438.312C287.839 438.97 287.309 439.698 286.662 440.31C285.39 441.487 284.785 441.54 283.31 440.993C281.298 440.242 279.377 439.187 277.433 438.295C269.893 434.843 262.03 431.813 254.788 427.752C251.507 425.916 248.454 423.612 246.512 420.342C244.665 417.234 244.002 413.603 243.83 410.036C243.407 401.995 245.079 393.585 248.417 386.28C252.326 377.686 258.533 370.447 262.63 361.946C263.064 361.055 261.798 360.204 261.198 360.956L261.012 360.981Z" fill="#AEB0A0"/>
<path d="M292.224 351.748C298.098 359.203 306.371 363.768 315.099 367.046C324.224 370.461 333.718 373.359 343.339 374.927C351.933 376.341 362.155 377.274 370.257 373.282C378.359 369.291 383.388 360.781 387.305 353.003C389.549 348.529 391.442 343.825 392.961 339.054C393.686 336.739 394.317 334.378 394.832 332.018C395.19 330.336 396.032 328.136 395.411 326.44C394.789 324.743 393.223 324.384 391.68 323.862C388.265 322.774 390.474 319.559 391.691 317.426C393.735 313.956 395.371 309.301 394.634 305.227C394.389 303.83 393.703 302.857 392.346 302.31C390.053 301.421 387.231 301.377 384.823 300.722C379.75 299.346 374.927 297.222 370.22 294.979C361.906 291.091 353.59 286.853 344.502 285.023C335.415 283.194 326.238 284.397 318.379 289.436C310.567 294.497 304.411 302.225 299.539 310.058C298.849 311.113 300.584 312.193 301.369 311.3C306.446 305.424 311.005 299.063 317.14 294.227C323.461 289.249 330.924 286.803 338.951 287.476C356.22 288.951 370.226 300.785 386.863 304.505C387.867 304.705 389.01 304.742 389.946 305.083C391.63 305.674 391.521 306.491 391.396 308.055C391.207 310.341 390.597 312.539 389.543 314.577C388.008 317.599 385.47 320.537 386.949 324.161C387.474 325.463 388.554 326.339 389.818 326.84C390.403 327.068 391.942 327.124 392.251 327.681C392.559 328.238 391.715 330.321 391.558 330.998C390.459 335.742 389.008 340.372 387.161 344.866C383.99 352.66 379.893 361.046 373.603 366.793C366.688 373.105 357.105 373.239 348.352 372.269C338.501 371.17 328.799 368.344 319.442 365.164C310.062 361.915 300.79 357.732 293.867 350.404C293.02 349.525 291.493 350.868 292.248 351.817L292.224 351.748Z" fill="#AEB0A0"/>
<path d="M282.127 356.614C283.209 362.714 284.755 368.693 285.488 374.912C286.245 381.201 286.536 387.495 287.059 393.786C287.535 399.937 288.244 406.087 289.605 412.091C290.285 415.093 291.152 418.07 292.32 420.904C293.726 424.202 295.758 427.168 297.396 430.348C297.847 431.207 299.356 430.494 298.928 429.588C296.284 423.479 293.985 416.785 292.573 410.292C291.211 404.171 290.688 397.88 290.188 391.659C289.712 385.507 289.376 379.307 288.481 373.183C287.658 367.384 286.53 361.261 283.452 356.159C283.05 355.557 281.957 355.893 282.057 356.638L282.127 356.614Z" fill="#AEB0A0"/>
<path d="M287.462 356.026C296.341 365.762 302.001 377.813 302.169 391.126C302.239 398.821 302.029 406.494 302.099 414.189C302.107 417.617 302.138 420.998 302.775 424.326C303.41 427.538 304.646 430.116 306.304 432.899C306.919 433.896 308.661 433.064 308.138 431.996C305.092 425.285 305.004 418.22 304.916 411.039C304.819 403.041 304.978 394.878 304.252 386.863C303.139 374.771 297.644 362.859 288.408 354.921C287.679 354.275 286.826 355.309 287.462 356.026Z" fill="#AEB0A0"/>
<path d="M276.054 355.507C274.812 359.949 273.639 364.25 271.789 368.511C270.031 372.584 268.015 376.59 266.561 380.754C263.969 388.076 262.944 395.874 263.527 403.587C264.087 411.231 266.3 418.696 269.976 425.425C271.778 428.743 273.86 431.965 276.403 434.717C279.064 437.584 282.257 439.957 285.333 442.33C286.061 442.86 286.961 441.849 286.234 441.32C280.527 436.848 275.779 430.175 272.316 423.841C268.616 416.926 266.517 409.226 266.166 401.395C265.836 393.399 267.374 385.62 270.408 378.224C273.306 371.225 278.155 363.439 277.594 355.563C277.539 354.607 276.256 354.619 276.007 355.484L276.054 355.507Z" fill="#AEB0A0"/>
<path d="M256.782 428.903C254.534 427.805 253.51 422.894 252.929 420.637C252.204 417.846 251.945 414.933 251.895 412.065C251.77 406.027 253.021 400.023 254.928 394.339C257.062 387.954 259.968 381.888 262.617 375.754C265.404 369.339 267.909 362.787 270.391 356.282C270.87 355.065 268.996 354.15 268.518 355.367C265.764 362.784 262.963 370.178 259.764 377.436C256.772 384.272 253.733 391.085 251.676 398.263C249.982 404.224 249.014 410.599 249.769 416.772C250.075 419.591 250.753 422.359 251.78 425.008C252.591 427.029 253.694 430.354 256.237 430.494C257.124 430.579 257.649 429.385 256.759 428.95L256.782 428.903Z" fill="#AEB0A0"/>
<path d="M250.653 236.838C253.033 239.568 255.046 242.931 256.916 245.992C258.81 249.122 260.611 252.324 262.064 255.645C265.04 262.381 267.134 269.497 268.598 276.712C270.088 284.114 270.95 291.615 271.461 299.119C271.967 306.04 271.937 312.989 272.676 319.908C273.417 326.943 275.298 333.782 279.733 339.431C280.63 340.565 282.345 339.43 281.611 338.201C274.646 326.209 275.886 311.32 274.855 297.992C273.741 283.171 271.226 268.247 264.853 254.687C263.212 251.158 261.362 247.7 259.164 244.479C256.942 241.188 254.26 238.601 251.576 235.78C250.917 235.11 249.994 236.168 250.63 236.885L250.653 236.838Z" fill="#AEB0A0"/>
<path d="M286.351 341.441C284.48 322.943 289.771 304.753 292.053 286.544C294.011 271.019 293.8 253.043 284.328 239.767C283.526 238.679 281.88 239.79 282.59 240.949C301.208 272.679 279.074 307.999 284.464 341.621C284.638 342.809 286.432 342.699 286.328 341.488L286.351 341.441Z" fill="#AEB0A0"/>
<path d="M236.849 236.821C237.636 238.772 237.374 240.733 237.252 242.763C237.131 244.793 237.01 246.823 236.888 248.853C236.644 252.796 236.4 256.739 236.226 260.658C235.856 268.659 235.86 276.728 237.354 284.596C240.025 298.842 246.743 311.816 255.868 322.949C261.174 329.43 268.292 335.171 271.465 343.047C271.942 344.209 273.686 343.61 273.278 342.425C270.977 335.497 265.522 330.626 260.903 325.235C256.071 319.566 251.956 313.261 248.561 306.669C245.12 300.055 242.421 292.991 240.932 285.706C239.273 277.699 239.175 269.469 239.497 261.328C239.666 256.826 239.927 252.253 239.98 247.752C240.017 244.23 240.694 239.164 238.195 236.202C237.724 235.623 236.608 236.007 236.895 236.844L236.849 236.821Z" fill="#AEB0A0"/>
<path d="M293.27 351.852C294.755 351.069 297.654 351.906 299.266 352.171C301.157 352.457 303.074 352.929 304.943 353.378C308.449 354.279 311.865 355.484 315.326 356.595C322.062 358.842 328.958 360.761 336.115 360.486C343.085 360.236 349.876 358.332 356.48 356.22C363.641 353.916 369.863 350.921 375.578 345.996C378.585 343.403 381.429 340.672 384.224 337.802C387.551 334.437 391.159 331.21 394.063 327.406C394.847 326.396 393.531 325.288 392.605 326.113C386.754 331.436 381.186 337.13 375.124 342.292C369.293 347.219 363.027 350.541 355.796 352.868C348.961 355.099 341.937 357.122 334.639 357.212C327.341 357.302 320.417 354.846 313.518 352.694C309.847 351.538 306.058 350.383 302.229 349.789C299.31 349.349 294.942 348.549 292.418 350.508C291.654 351.121 292.387 352.234 293.293 351.806L293.27 351.852Z" fill="#AEB0A0"/>
<path d="M338.595 517.269C340.377 497.828 322.967 483.46 305.719 479.21C304.364 478.896 303.118 480.376 303.619 481.607C305.529 486.487 307.136 491.392 308.093 496.56C308.952 501.333 309.183 506.204 309.67 511.027C310.615 520.019 313.815 528.315 321.004 534.149C324.457 536.939 328.556 538.883 332.855 539.824C334.794 540.249 336.755 540.511 338.714 540.54C341.023 540.565 344.766 539.319 346.69 540.607C348.449 541.757 350.001 543.212 351.829 544.221C353.822 545.369 355.905 546.213 358.104 546.939C362.593 548.32 367.377 548.743 372.035 548.118C382.539 546.693 394.392 539.776 404.592 545.979C406.187 546.99 407.426 544.811 406.785 543.511C400.089 530.373 388.499 520.009 374.877 514.513C363.339 509.861 346.357 506.612 336.488 516.355C335.517 517.274 337.093 518.682 338.017 517.741C347.678 508.302 365.045 512.901 375.725 518.003C387.833 523.746 397.809 533.495 403.934 545.425L406.127 542.957C397.943 537.971 388.407 540.623 379.801 543.034C370.172 545.756 360.731 546.075 351.776 540.887C350.158 539.922 348.581 538.281 346.757 537.738C344.933 537.195 342.819 538.077 340.955 538.211C336.107 538.511 331.201 537.507 326.844 535.261C317.941 530.679 313.383 521.836 312.549 512.143C312.104 506.877 312.103 501.654 311.333 496.461C310.491 491.059 309.183 485.661 307.154 480.549C306.462 481.372 305.793 482.147 305.054 482.947C313.701 485.083 322.019 489.438 327.841 496.287C332.861 502.164 335.68 509.577 336.356 517.219C336.461 518.431 338.492 518.669 338.619 517.339L338.595 517.269Z" fill="#AEB0A0"/>
<path d="M326.099 484.414C323.896 467.785 330.969 450.698 346.5 443.141C354.626 439.22 362.677 439.963 371.317 441.283C375.964 441.987 380.587 442.621 385.256 443.278C386.517 443.43 388.707 443.223 389.304 444.733C389.566 445.384 388.974 446.952 388.91 447.559C388.49 450.081 388.093 452.556 387.673 455.078C387.562 455.779 388.013 456.638 388.783 456.724C391.818 457.046 395.996 457.521 398.531 459.34C399.185 459.427 399.515 459.821 399.45 460.428C399.782 460.938 399.669 461.405 399.088 461.643C398.837 462.159 398.258 462.63 397.982 463.076C397.269 464.178 396.72 465.303 396.358 466.519C394.594 472.504 395.61 479.094 394.5 485.284C392.257 497.593 384.778 508.504 372.429 512.161C370.545 512.691 371.572 515.34 373.388 514.95C387.514 511.93 395.711 497.888 397.828 484.53C398.424 480.817 398.437 477.109 398.542 473.331C398.619 471.511 398.718 469.645 399.169 467.892C399.73 465.555 401.001 464.261 402.22 462.361C406.06 456.403 392.632 454.31 389.271 453.945C389.649 454.477 390.027 455.01 390.405 455.543C390.781 453.348 391.111 451.13 391.487 448.934C391.729 447.253 392.503 445.194 392.3 443.47C391.895 439.906 386.603 440.048 384.011 439.652C375.907 438.303 367.518 436.351 359.241 436.426C344.341 436.515 330.637 447.577 325.398 461.149C322.413 468.801 321.973 476.827 324.353 484.664C324.665 485.687 326.388 485.368 326.215 484.297L326.099 484.414Z" fill="#AEB0A0"/>
<path d="M344.831 441.929C351.405 436.669 351.66 426.29 348.865 418.947C345.545 410.303 338.169 404.377 330.042 400.464C328.449 399.686 327.282 402.075 328.851 402.9C335.764 406.568 342.531 412.196 345.606 419.56C347.013 422.975 347.631 426.817 347.221 430.505C346.812 434.193 345.373 437.494 343.514 440.706C343.078 441.479 344.159 442.472 344.853 441.883L344.831 441.929Z" fill="#AEB0A0"/>
<path d="M290.177 437.617C289.247 440.47 287.686 443.189 287.201 446.202C286.714 449.098 286.998 452.08 287.932 454.8C288.459 456.334 290.83 455.519 290.303 453.985C289.417 451.405 289.299 448.678 289.788 446.015C290.346 443.328 292.186 440.513 291.67 437.65C291.522 436.765 290.379 436.729 290.131 437.594L290.177 437.617Z" fill="#AEB0A0"/>
<path d="M307.809 480.532C307.695 475.776 307.255 470.976 305.35 466.563C303.397 462.127 300.102 458.776 295.998 456.248C287.227 450.802 276.65 446.678 266.22 448.545C265.01 448.766 264.483 449.843 265.053 450.934C268.565 457.641 271.541 464.376 271.611 472.071C271.674 478.949 270.361 485.793 271.123 492.665C271.735 498.419 273.701 504.371 278.005 508.389C283.297 513.354 290.74 513.8 297.644 514.04C297.008 513.323 296.419 512.629 295.76 511.958C289.314 533.936 320.775 554.823 338.576 540.483C339.432 539.799 338.557 538.385 337.606 539.023C320.988 550.111 293.315 532.874 299.31 512.649C299.672 511.433 298.452 510.605 297.426 510.567C290.638 510.326 282.961 509.766 278.639 503.766C275.097 498.902 274.317 492.659 274.287 486.784C274.253 480.441 274.964 474.115 274.114 467.781C273.239 461.376 270.527 455.408 267.862 449.579C267.402 450.283 266.965 450.94 266.505 451.644C276.123 450.25 285.226 453.828 293.501 458.626C297.674 461.013 300.921 464.225 302.781 468.732C304.378 472.588 305.07 476.872 305.97 480.968C306.237 482.085 307.865 481.604 307.856 480.555L307.809 480.532Z" fill="#AEB0A0"/>
<path d="M338.398 516.372C343.085 511.293 346.105 504.876 349.057 498.716C352.262 492.158 355.326 485.531 359.585 479.546C367.253 468.843 377.306 461.453 389.149 456.098C390.426 455.503 389.801 453.457 388.407 453.936C376.551 458.008 365.507 466.597 357.972 476.553C353.71 482.188 350.503 488.513 347.459 494.86C344.071 501.793 340.566 508.611 336.85 515.384C336.392 516.321 337.635 517.102 338.328 516.396L338.398 516.372Z" fill="#AEB0A0"/>
<path d="M343.808 512.919C346.397 510.47 350.094 509.317 353.299 507.866C356.04 506.652 358.779 505.321 361.448 503.897C367.087 500.908 372.301 497.363 376.925 493.007C386.567 483.964 390.382 470.218 400.964 461.984C402.191 461.017 400.866 458.977 399.639 459.944C389.009 467.922 384.935 481.484 375.81 490.895C371.098 495.788 365.115 499.48 359.151 502.659C353.744 505.53 347.092 507.386 342.773 511.949C342.15 512.631 343.207 513.554 343.878 512.895L343.808 512.919Z" fill="#AEB0A0"/>
<path d="M334.737 502.855C336.358 496.451 336.177 489.457 336.957 482.874C337.737 476.408 339.171 469.912 342.336 464.147C345.249 458.781 349.521 454.195 354.383 450.419C359.199 446.621 364.608 443.984 369.873 440.928C371.172 440.17 370.081 438.127 368.733 438.629C357.275 442.721 346.069 451.521 339.962 462.117C336.542 468.048 335.04 474.684 334.169 481.454C333.736 485.072 333.466 488.712 333.265 492.329C333.04 495.759 332.723 499.376 333.034 502.777C333.136 503.756 334.466 503.767 334.667 502.879L334.737 502.855Z" fill="#AEB0A0"/>
<path d="M256.573 367.341C228.35 381.869 210.587 410.619 197.152 438.351C189.003 455.028 182.024 472.277 173.734 488.885C165.696 504.978 156.321 520.244 144.789 534.107C138.63 541.485 132.024 548.471 124.971 554.948C118.404 561.024 111.24 568.085 102.426 570.684C101.054 571.116 101.472 573.467 102.938 573.197C127.563 568.169 148.605 553.73 167.322 537.516C187.543 520.006 206.577 500.292 230.835 488.178C243.207 481.98 256.627 478.15 270.545 477.813C272.55 477.748 272.266 474.766 270.307 474.737C246.073 474.095 223.332 486.195 204.645 500.566C183.016 517.156 164.596 537.751 141.977 553.161C130.066 561.267 117.021 567.892 102.798 570.633C102.969 571.471 103.14 572.309 103.311 573.147C110.825 571.19 116.935 566.167 122.72 561.218C129.198 555.679 135.394 549.77 141.143 543.468C152.872 530.629 162.862 516.36 171.234 501.127C188.323 469.958 199.037 435.325 219.547 406.06C229.814 391.463 242.45 378.429 257.567 368.871C258.494 368.279 257.573 366.958 256.644 367.433L256.573 367.341Z" fill="#AEB0A0"/>
<path d="M250.087 374.555C240.429 381.732 232.609 391.084 225.491 400.663C218.304 410.382 212.268 420.954 206.886 431.73C195.023 455.413 186.718 480.602 175.605 504.652C172.472 511.419 168.775 517.796 164.141 523.598C159.577 529.376 154.495 534.669 149.366 539.939C148.419 540.927 149.857 542.616 150.969 541.766C180.49 518.762 206.399 488.305 243.136 476.661C252.46 473.731 262.147 472.197 271.921 472.621C273.554 472.722 273.345 470.183 271.711 470.081C234.201 468.464 203.345 493.486 176.811 516.79C167.881 524.613 158.999 532.459 149.597 539.703L151.2 541.531C159.887 532.661 168.526 523.651 174.535 512.66C180.888 500.966 185.505 488.192 190.476 475.881C200.146 452.055 209.978 428.134 224.381 406.736C232.065 395.287 241.138 385.27 251.054 375.666C251.678 375.101 250.759 374.013 250.087 374.555Z" fill="#AEB0A0"/>
<path d="M281.857 205.029C281.953 207.803 282.608 210.619 282.936 213.391C283.266 216.279 283.525 219.192 283.622 222.082C283.861 227.886 283.518 233.696 282.684 239.44C282.488 240.911 284.707 241.357 284.973 239.862C285.922 234 286.312 228.097 286.071 222.177C285.975 219.286 285.715 216.374 285.316 213.509C284.893 210.575 284.491 207.477 283.254 204.783C282.921 204.04 281.803 204.19 281.835 205.076L281.857 205.029Z" fill="#AEB0A0"/>
<path d="M287.646 204.835C288.097 210.801 288.501 216.743 288.252 222.715C287.957 228.781 286.986 234.806 285.501 240.695C285.141 242.144 287.383 242.544 287.79 241.118C290.807 229.361 291.902 216.432 288.996 204.566C288.826 203.845 287.662 204.089 287.716 204.811L287.646 204.835Z" fill="#AEB0A0"/>
<path d="M305.219 301.982C312.376 296.716 316.687 288.726 320.791 281.04C325.423 272.393 329.492 263.472 333.702 254.619C341.023 239.162 348.466 221.675 363.56 212.28C365.067 211.334 363.531 209.016 362.024 209.962C347.579 219.095 339.96 235.044 332.913 249.939C328.703 258.792 324.634 267.713 320.143 276.429C317.943 280.693 315.673 284.864 313.239 289.013C310.782 293.21 308.046 297.502 304.344 300.684C303.557 301.344 304.385 302.619 305.219 301.982Z" fill="#AEB0A0"/>
<path d="M314.819 295.988C326.005 284.973 330.836 270.098 336.372 255.8C339.175 248.639 342.117 241.43 346.255 234.863C350.875 227.546 357.026 221.847 363.763 216.492C364.712 215.737 363.648 214.114 362.699 214.869C356.401 219.8 350.526 225.054 346.016 231.671C341.597 238.1 338.328 245.265 335.502 252.473C329.644 267.194 324.822 283.118 313.831 295.04C313.231 295.676 314.217 296.506 314.795 295.918L314.819 295.988Z" fill="#AEB0A0"/>
<path d="M385.444 181.994C383.289 180.941 381.089 182.593 379.374 183.845C376.594 185.852 374.17 188.439 372.096 191.14C368.04 196.47 364.995 202.7 363.025 209.108C361.079 215.584 362.09 221.591 364.943 227.628C367.843 233.688 371.234 239.93 375.572 245.067C377.104 246.918 378.854 249.514 381.501 248.371C384.335 247.086 386.107 244.528 389.297 244.056C392.371 243.585 395.543 243.626 398.593 243.201C401.784 242.729 404.996 242.094 408.041 241.087C420.108 237.176 430.39 226.822 428.028 213.249C425.618 199.536 415.691 187.431 402.795 182.232C400.899 181.48 399.548 184.244 401.398 185.09C409.148 188.47 415.657 194.03 420.014 201.266C424.536 208.757 427.234 218.2 422.995 226.4C418.731 234.53 410.284 238.991 401.532 240.75C397.413 241.58 393.239 241.571 389.117 242.169C385.577 242.644 383.228 245.907 379.706 245.869L381.065 246.533C377.174 241.788 373.725 236.852 370.784 231.469C367.986 226.388 364.857 220.797 365.339 214.823C365.775 208.943 368.542 202.924 371.387 197.815C372.971 195.049 374.812 192.351 376.912 189.953C378.089 188.613 382.63 182.882 384.597 183.727C385.674 184.253 386.475 182.614 385.421 182.041L385.444 181.994Z" fill="#AEB0A0"/>
<path d="M423.999 204.027C424.428 210.156 428.014 214.694 432.781 218.358C437.806 222.207 443.71 225.324 449.855 226.644C463.383 229.482 473.795 220.643 482.503 211.493C484.628 209.281 486.633 206.721 486.791 203.549C486.826 202.289 486.651 200.985 486.082 199.894C485.464 198.664 484.2 198.162 483.514 197.073C482.591 195.519 484.595 192.842 485.165 191.438C485.827 189.846 486.418 188.162 486.892 186.478C487.525 184.234 489.118 180.022 487.188 178.035C486.176 177.018 484.733 177.241 483.425 177.066C481.184 176.783 479.237 175.542 477.591 174.041C474.91 171.571 472.901 168.557 470.29 166.063C465.42 161.304 459.233 157.932 452.71 156.08C438.683 152.127 423.517 156.322 413.046 166.351C411.52 167.811 413.988 170.004 415.514 168.544C423.767 160.681 435.483 156.656 446.783 158.232C453.087 159.108 459.149 161.547 464.267 165.325C466.873 167.237 469.108 169.432 471.229 171.861C473.161 174.082 475.024 176.327 477.487 177.936C478.636 178.672 479.901 179.29 481.211 179.698C482.239 179.968 484.452 179.715 485.022 180.806C485.378 181.502 484.355 184.426 484.175 185.151C483.726 187.02 483.066 188.845 482.313 190.624C481.468 192.591 479.786 194.845 480.25 197.102C480.786 199.686 483.802 200.521 483.432 203.416C483.017 206.521 479.892 208.998 477.835 211.069C475.802 213.093 473.791 215.07 471.569 216.886C467.241 220.399 462.254 223.36 456.568 223.715C449.786 224.173 443.23 221.201 437.555 217.732C432.373 214.561 426.851 209.948 425.186 203.853C424.97 203.109 423.853 203.376 423.906 204.098L423.999 204.027Z" fill="#AEB0A0"/>
<path d="M431.299 157.168C436.265 154.604 439.974 149.627 442.565 144.8C445.386 139.621 446.941 133.707 447.308 127.851C448.119 114.552 441.718 102.951 433.766 92.7398C431.713 90.0536 429.428 87.486 426.866 85.2475C424.679 83.3087 421.764 80.7235 418.889 79.9569C416.481 79.3026 414.534 80.5562 412.987 82.2959C412.203 83.1892 411.583 84.2208 410.68 84.9986C409.199 86.2479 407.519 86.1233 405.743 85.7198C402.355 84.9345 399.036 84.1253 395.583 83.8303C392.736 83.5998 389.163 83.0727 386.492 84.2629C383.729 85.524 382.522 88.7063 381.076 91.1912C378.985 94.6381 376.612 97.831 374.264 101.094C369.612 107.525 364.987 114.377 363.497 122.295C362.185 129.256 363.652 136.704 367.715 142.52C368.849 144.119 371.213 142.489 370.219 140.842C367.047 135.694 365.524 129.785 366.448 123.737C367.506 116.942 371.135 110.939 375.002 105.401C378.708 100.074 382.345 94.8873 385.746 89.3532C386.665 87.8291 387.637 87.0274 389.547 86.8001C391.037 86.6 392.695 86.7714 394.211 86.8742C397.478 87.0776 400.655 87.7016 403.857 88.5119C406.007 89.0986 408.297 89.6373 410.459 88.8948C412.482 88.2001 413.772 86.5094 415.157 84.9811C415.988 83.9941 416.656 83.1019 418.057 83.3224C419.599 83.6115 421.174 85.0195 422.395 85.9645C424.955 87.9698 427.261 90.2574 429.335 92.6636C436.878 101.572 443.856 112.469 444.129 124.498C444.299 130.326 443.047 136.214 440.646 141.483C438.086 147.079 434.277 151.311 430.284 155.918C429.615 156.694 430.556 157.618 431.392 157.214L431.299 157.168Z" fill="#AEB0A0"/>
<path d="M385.379 182.724C386.289 180.151 386.241 177.516 386.333 174.834C386.422 171.801 386.488 168.816 386.041 165.812C385.322 161.108 383.462 156.601 380.675 152.686C374.203 143.604 363.758 138.616 352.834 137.456C351.9 137.348 351.183 137.984 351.169 138.964C351.163 143.488 350.551 147.947 349.308 152.272C348.088 156.551 345.885 160.465 344.314 164.63C341.718 171.486 341.599 178.856 346.015 185.018C346.606 185.829 347.544 186.403 347.227 187.526C347.092 188.04 346.119 188.725 345.727 189.171C344.551 190.628 343.586 192.246 342.949 194.024C341.881 197.042 341.958 200.329 343.453 203.207C347.179 210.308 355.793 211.442 362.977 211.587C364.236 211.622 364.404 209.498 363.096 209.324C356.606 208.473 345.329 206.967 345.412 198.129C345.418 196.216 346.194 194.391 347.159 192.773C348.032 191.342 349.351 190.304 350.248 188.944C351.996 186.2 349.202 184.196 347.9 181.993C343.567 174.827 346.252 167.434 349.101 160.296C351.882 153.298 353.613 146.194 353.965 138.705C353.433 139.2 352.854 139.671 352.299 140.213C362.271 141.777 372.06 146.445 377.967 154.903C380.566 158.61 382.26 162.862 382.791 167.357C383.373 172.342 382.257 177.832 383.863 182.621C384.078 183.249 385.106 183.403 385.333 182.701L385.379 182.724Z" fill="#AEB0A0"/>
<path d="M391.921 184.648C396.066 194.218 396.399 205.175 392.64 214.886C390.635 220.058 387.881 224.863 385.267 229.737C382.653 234.611 379.739 239.861 378.997 245.418C378.822 246.725 380.742 247.547 381.289 246.19C383.616 240.479 385.967 234.954 388.856 229.518C391.653 224.269 394.566 219.019 396.38 213.29C399.507 203.327 398.549 192.936 393.407 183.865C392.933 183.054 391.493 183.743 391.874 184.626L391.921 184.648Z" fill="#AEB0A0"/>
<path d="M376.748 241.349C371.2 231.326 374.223 220.152 379.361 210.708C383.879 202.412 390.46 192.745 389.086 182.73C388.935 181.496 387.234 181.651 387.175 182.841C386.973 188.836 385.389 194.097 382.592 199.345C379.979 204.336 376.873 209.028 374.542 214.156C372.392 218.793 370.922 223.82 371.132 228.971C371.316 233.82 373.079 237.931 375.565 241.989C376.062 242.754 377.174 242.021 376.747 241.232L376.748 241.349Z" fill="#AEB0A0"/>
<path d="M395.814 186.197C402.863 192.079 407.983 201.196 409.58 210.159C410.44 214.932 410.368 219.829 409.455 224.548C408.965 227.094 408.289 229.665 407.332 232.099C406.443 234.392 405.11 236.526 404.199 238.867C403.88 239.756 404.866 240.47 405.559 239.764C408.979 236.328 410.978 230.457 411.984 225.784C413.125 220.48 413.168 214.93 412.164 209.623C410.253 199.52 404.792 191.338 396.76 185.092C396.008 184.493 395.062 185.597 395.814 186.197Z" fill="#AEB0A0"/>
<path d="M405.031 178.857C418.95 176.025 431.827 181.737 444.169 187.595C455.387 192.902 468.855 199.425 481.578 195.951C483.044 195.565 482.511 193.331 481.066 193.438C477.687 193.702 474.517 193.894 471.108 193.388C467.91 192.928 464.755 192.257 461.692 191.282C454.63 189.108 448.023 185.647 441.371 182.513C430.155 177.322 416.959 172.499 404.76 177.274C403.97 177.584 404.147 179.005 405.054 178.81L405.031 178.857Z" fill="#AEB0A0"/>
<path d="M414.624 172.984C424.733 169.161 435.993 171.414 446 174.331C456.24 177.245 467.707 181.805 478.506 179.538C479.996 179.221 479.393 177.011 478.018 177.094C471.934 177.312 466.264 176.921 460.351 175.482C454.742 174.134 449.246 172.319 443.636 170.854C438.704 169.547 433.635 168.637 428.552 168.59C423.304 168.521 418.72 169.589 414.078 171.963C413.452 172.295 413.973 173.247 414.601 173.031L414.624 172.984Z" fill="#AEB0A0"/>
<path d="M408.066 181.91C415.521 183.755 422.994 187.464 428.937 192.283C434.317 196.712 438.427 202.434 444.315 206.298C454.474 213.061 467.133 215.3 478.975 212.324C480.766 211.865 479.786 209.239 478.041 209.605C465.892 212.257 452.526 209.208 442.871 201.297C437.584 196.915 433.476 191.426 427.729 187.631C424.749 185.652 421.586 183.932 418.24 182.704C414.964 181.451 411.811 180.897 408.379 180.438C407.445 180.33 407.201 181.662 408.089 181.863L408.066 181.91Z" fill="#AEB0A0"/>
</svg>
