<svg width="285" height="365" viewBox="0 0 285 365" fill="none" xmlns="http://www.w3.org/2000/svg">
<g clip-path="url(#clip0_162_728)">
<path d="M221.4 283.565C221.517 296.972 221.47 312.091 211.063 322.053C206.422 326.529 200.515 329.366 194.492 331.452C187.6 333.843 180.404 335.413 173.302 336.983C157.551 340.453 141.26 342.796 125.157 340.523C112.43 338.718 99.913 333.749 90.1387 325.334C89.8809 325.123 89.6465 324.842 89.4121 324.631C89.1074 324.584 88.8261 324.443 88.5448 324.115C88.1932 323.717 87.912 323.318 87.5838 322.896C79.4269 314.786 74.7624 304.309 72.6294 293.058C69.7932 283.119 68.34 272.806 67.7071 262.469C67.1914 254.242 67.168 246.038 67.1914 237.787C67.2383 230.146 67.2383 222.528 67.543 214.91C68.1056 199.956 69.9104 184.673 75.6062 170.727C77.1767 166.906 79.0518 163.273 81.1614 159.757C81.8411 158.023 82.5443 156.312 83.3881 154.647C86.154 149.069 89.9278 143.889 94.7329 139.904C99.3739 136.06 104.812 133.364 110.578 131.7C117.282 128.02 124.525 125.324 132.025 123.871C144.589 121.434 157.691 122.512 169.716 126.918C181.506 131.231 192.312 138.498 200.445 148.108C209.563 158.913 214.532 172.18 216.9 185.963C219.572 201.456 219.642 217.348 220.181 233.006C220.744 249.859 221.189 266.688 221.353 283.541L221.4 283.565Z" fill="#E6C1B7"/>
<path d="M284.268 305.576C284.198 311.435 284.034 317.295 283.753 323.132C283.542 327.89 283.213 332.695 282.112 337.36C281.057 341.86 279.182 346.149 276.158 349.665C273.439 352.877 269.876 355.267 266.056 356.978C257.5 360.823 247.796 361.924 238.608 363.19C228.131 364.62 217.255 365.346 207.035 362.135C198.644 359.51 190.838 354.353 186.502 346.524C181.673 337.805 181.392 327.515 181.228 317.811C181.041 306.208 181.205 294.582 181.908 283.003C182.095 280.144 182.306 277.284 182.494 274.424C182.541 273.252 182.541 272.08 182.588 270.908C182.986 260.314 183.549 249.578 185.283 239.101C186.783 230.006 190.041 220.771 196.698 214.114C203.355 207.458 211.653 204.27 220.325 202.653C236.616 199.535 256.985 200.801 269.501 212.966C276.322 219.623 279.252 228.858 280.659 238.046C282.323 248.946 282.979 260.056 283.565 271.073C284.174 282.581 284.385 294.067 284.245 305.552L284.268 305.576Z" fill="#E3D5CA"/>
<path d="M113.909 268.425C114.518 280.121 114.729 291.841 114.495 303.537C114.401 309.514 114.143 315.444 113.815 321.398C113.51 326.508 113.229 331.688 111.963 336.657C110.745 341.462 108.494 345.939 105.002 349.479C101.697 352.83 97.5951 355.221 93.2588 356.979C88.1724 359.042 82.7578 360.026 77.3667 360.847C71.6944 361.667 65.9751 362.441 60.2324 362.886C49.8956 363.66 39.3009 363.05 29.6673 358.948C20.8306 355.151 13.8925 348.588 10.189 339.657C7.91541 334.173 6.74343 328.242 5.94649 322.242C4.72764 317.577 3.86037 312.819 3.18063 308.295C1.4461 296.763 0.578838 285.114 0.696036 273.464C0.766354 264.018 1.46954 254.244 4.77451 245.313C8.10293 236.336 14.08 228.906 22.5417 224.311C31.6597 219.342 42.1371 217.842 52.4036 217.912C58.0994 217.936 63.7953 218.405 69.4676 218.92C75.0462 219.389 80.6483 219.858 86.1097 221.1C95.5324 223.28 104.697 228.32 109.01 237.344C111.143 241.821 112.057 246.673 112.62 251.548C113.276 257.15 113.581 262.799 113.886 268.448L113.909 268.425Z" fill="#AEB0A0"/>
<path d="M24.7435 181.959C24.7435 188.475 24.6732 194.968 24.6732 201.484C24.6732 202.258 24.6732 203.008 24.6732 203.781C24.6732 204.461 24.8373 205.399 24.6732 206.078C24.4388 207.063 23.4075 207.672 22.8215 208.446C22.3058 209.079 22.1418 209.805 22.1418 210.626C22.1418 211.282 22.5402 212.501 22.1183 213.016C21.837 213.368 20.8526 213.626 20.4541 213.837C19.915 214.118 19.3993 214.399 18.8837 214.681C17.782 215.314 16.7272 215.993 15.6959 216.72C13.9614 217.962 12.3206 219.345 10.8439 220.869C8.42962 223.377 6.39038 226.26 4.86681 229.401C3.15573 232.963 1.88999 236.972 1.74936 240.956C1.56184 246.066 1.74936 251.223 1.74936 256.333C1.74936 262.755 1.74936 269.201 1.74936 275.623C1.74936 298.665 1.51496 321.729 1.96031 344.77C2.03063 348.638 5.03089 351.708 8.03115 353.747C11.9924 356.419 16.7272 357.99 21.3214 359.068C29.619 361.037 38.2447 361.717 46.7533 361.975C49.6598 362.068 52.5428 362.068 55.4259 361.998C55.9181 361.998 55.9181 361.248 55.4259 361.248C45.7219 361.037 35.9008 360.662 26.3609 358.763C21.0401 357.709 15.6021 356.302 10.8673 353.607C8.49994 352.271 6.17943 350.536 4.77306 348.192C4.3277 347.419 4.14019 347.02 3.90579 346.176C3.71828 345.45 3.7886 345.614 3.71828 344.981C3.71828 344.887 3.71828 344.77 3.71828 344.676C3.71828 344.536 3.69484 344.887 3.69484 344.864C3.71828 343.317 3.74172 341.77 3.76516 340.246C3.81204 333.824 3.85891 327.378 3.88235 320.956C3.92923 308.181 3.95267 295.43 3.95267 282.655C3.95267 269.787 3.95267 256.919 3.95267 244.05C3.95267 240.089 4.32771 236.714 5.73408 232.917C8.40618 225.791 13.7504 220.048 20.3603 216.368C21.9542 215.478 24.2044 215.032 24.4388 212.946C24.5326 212.126 24.2279 211.282 24.3216 210.462C24.4388 209.524 25.4936 208.868 26.0562 208.118C27.486 206.196 26.8531 203.195 26.8531 200.922C26.8531 197.664 26.8297 194.405 26.8062 191.147C26.8062 188.077 26.8062 185.03 26.8062 181.959C26.8062 180.623 24.7435 180.623 24.7435 181.959Z" fill="#E6C1B7"/>
<path d="M83.8814 181.959C83.8814 188.288 83.8111 194.593 83.8111 200.922C83.8111 203.266 83.1782 206.242 84.7018 208.211C85.194 208.868 86.1551 209.501 86.3191 210.297C86.4832 211.141 86.1316 212.079 86.2254 212.923C86.4598 215.056 88.8975 215.548 90.4914 216.439C92.4837 217.564 94.3823 218.876 96.1169 220.376C98.9296 222.814 101.297 225.697 103.102 228.955C105.071 232.518 106.501 236.737 106.688 240.769C106.876 245.058 106.688 249.395 106.688 253.661C106.688 260.083 106.688 266.529 106.688 272.951C106.688 285.82 106.688 298.688 106.712 311.556C106.735 317.979 106.735 324.425 106.782 330.847C106.805 334.058 106.829 337.269 106.852 340.504C106.852 341.957 106.876 343.387 106.922 344.84C106.922 344.418 106.899 344.559 106.899 344.653C106.899 344.958 106.899 345.239 106.876 345.544C106.899 345.262 106.782 346.012 106.735 346.2C106.641 346.528 106.524 346.856 106.407 347.184C105.657 348.989 103.805 350.911 102 352.2C98.1795 354.943 93.6088 356.466 89.1084 357.662C80.8109 359.818 72.2085 360.639 63.6531 360.99C60.8404 361.107 58.0276 361.201 55.2149 361.248C54.7226 361.248 54.7226 361.998 55.2149 361.998C64.9188 362.186 74.7166 361.717 84.3033 360.076C89.7647 359.139 95.3199 357.756 100.266 355.13C103.969 353.185 108.399 349.81 108.68 345.192C108.704 344.794 108.68 344.395 108.68 344.02C108.727 337.598 108.798 331.152 108.821 324.729C108.868 311.673 108.915 298.618 108.891 285.538C108.891 272.389 108.891 259.216 108.891 246.066C108.891 241.589 108.821 237.628 107.391 233.339C105.118 226.518 100.641 220.705 94.7808 216.579C93.8667 215.923 92.9056 215.314 91.9446 214.751C91.429 214.446 90.9133 214.165 90.3742 213.884C89.9523 213.673 88.7803 213.345 88.499 212.97C88.1005 212.454 88.4521 211.399 88.4756 210.743C88.4756 209.829 88.3115 209.008 87.7255 208.305C87.1395 207.602 86.2019 206.992 85.9675 206.055C85.8035 205.399 85.9675 204.438 85.9675 203.758C85.9675 202.891 85.9675 202.023 85.9675 201.179C85.9675 197.921 85.9441 194.663 85.9207 191.405C85.8972 188.241 85.9207 185.077 85.8972 181.936C85.8972 180.6 83.8345 180.6 83.8345 181.936L83.8814 181.959Z" fill="#E6C1B7"/>
<path d="M29.0335 206.5C32.7838 208.164 37.2139 208.375 41.2455 208.657C45.6521 208.961 50.0588 209.243 54.4654 209.43C63.2084 209.782 72.2326 209.782 80.8114 207.719C81.8897 207.461 81.4209 205.914 80.3661 206.102C71.7638 207.602 63.1849 207.953 54.4654 207.578C50.2463 207.414 46.0272 207.133 41.8081 206.852C37.6124 206.57 33.5339 205.82 29.3851 205.281C28.7522 205.188 28.471 206.242 29.057 206.5H29.0335Z" fill="#E6C1B7"/>
<path d="M26.7852 215.851C31.2387 217.468 35.9969 218.125 40.6848 218.734C45.5837 219.367 50.506 219.718 55.4283 219.812C65.0385 220 74.8597 219.32 84.2589 217.234C85.4543 216.976 84.9152 215.242 83.7667 215.429C74.2737 216.929 64.7807 217.914 55.147 217.703C50.506 217.609 45.865 217.281 41.2474 216.695C36.4657 216.109 31.7544 215.054 26.9727 214.562C26.1992 214.491 26.1523 215.617 26.8086 215.851H26.7852Z" fill="#E6C1B7"/>
<path d="M17.032 168.247C16.2585 169.02 15.9069 170.146 15.6725 171.2C15.4381 172.279 15.2975 173.38 15.3678 174.482C15.4615 176.474 16.071 178.467 17.4773 179.92C18.1336 180.576 19.2353 179.732 18.7665 178.935C17.9461 177.529 17.4305 175.959 17.407 174.318C17.407 173.427 17.4773 172.536 17.6414 171.646C17.8524 170.685 18.1805 169.7 18.1336 168.716C18.1102 168.177 17.4539 167.849 17.032 168.27V168.247Z" fill="#E6C1B7"/>
<path d="M18.2032 169.276C41.338 169.722 64.4729 169.37 87.6077 169.37C87.2795 169.112 86.9514 168.878 86.6232 168.62C87.9124 172.206 88.053 175.98 86.4357 179.473C86.717 179.309 87.0217 179.145 87.303 178.98C75.9348 178.98 64.5666 178.793 53.1984 178.91C50.3857 178.934 47.5729 178.957 44.7368 179.027C41.924 179.098 39.0878 179.426 36.2751 179.473C30.5558 179.566 24.8132 179.402 19.0705 179.473C18.3907 179.473 18.3907 180.504 19.0705 180.527C24.696 180.621 30.3449 180.457 35.9704 180.527C38.8769 180.574 41.7834 180.926 44.7133 180.973C47.5261 181.043 50.3388 181.067 53.175 181.09C64.5432 181.184 75.9113 181.02 87.2795 181.02C87.6077 181.02 88.0061 180.832 88.1468 180.527C89.9751 176.519 89.9985 172.23 88.5218 168.105C88.3812 167.683 88.0061 167.354 87.5373 167.354C64.4025 167.354 41.2677 167.003 18.1329 167.448C16.9609 167.448 16.9609 169.23 18.1329 169.253L18.2032 169.276Z" fill="#E6C1B7"/>
<path d="M29.2906 167.778C29.2437 164.613 28.3296 161.402 27.767 158.308C27.2045 155.144 26.5482 151.933 26.22 148.745C26.1263 147.713 26.3372 147.198 27.2279 146.682C27.7905 146.354 28.4233 146.12 29.0093 145.862C30.5329 145.205 32.0799 144.666 33.6504 144.174C36.4631 143.307 39.3462 142.674 42.2527 142.205C48.2766 141.244 54.4412 141.127 60.5121 141.549C63.653 141.783 66.7704 142.158 69.8879 142.65C72.7709 143.119 75.9353 143.729 78.5136 145.229C80.3419 146.284 79.6856 148.839 79.6387 150.643C79.5919 152.495 79.5684 154.323 79.545 156.175C79.4747 160.043 79.334 163.934 79.4512 167.801C79.4747 168.879 81.0685 168.879 81.1154 167.801C81.3733 163.934 81.3498 160.043 81.3967 156.175C81.4201 154.323 81.467 152.495 81.4905 150.643C81.4905 149.073 81.8655 146.94 81.1623 145.463C80.0138 143.049 75.9587 142.205 73.6382 141.619C70.4504 140.822 67.1689 140.377 63.8874 140.025C57.043 139.275 50.1049 139.252 43.284 140.166C39.9322 140.611 36.6272 141.314 33.3925 142.299C31.8221 142.768 30.2751 143.307 28.7281 143.893C27.4858 144.362 25.9388 144.783 24.9777 145.721C23.923 146.752 24.0167 148.206 24.1808 149.565C24.4621 151.628 24.7902 153.69 25.1418 155.753C25.8216 159.808 26.2435 164.332 28.0014 168.082C28.2827 168.692 29.2672 168.387 29.2672 167.754L29.2906 167.778Z" fill="#E6C1B7"/>
<path d="M30.6279 180.178C30.4404 182.475 31.5889 185.1 32.1749 187.28C32.7609 189.436 33.1359 191.968 34.1672 193.96C35.0814 195.718 36.8628 196.445 38.6676 197.007C40.8709 197.663 43.1915 197.992 45.4885 198.132C50.1764 198.367 54.8878 197.757 59.5288 197.101C64.0761 196.445 68.7874 195.788 72.9597 193.749C75.163 192.647 76.2412 191.475 76.8741 189.085C77.6007 186.342 78.3742 183.553 78.8899 180.74C79.1008 179.615 77.4835 179.146 77.1788 180.271C76.4053 182.92 75.8427 185.639 75.1395 188.311C74.7645 189.694 74.4364 190.749 73.1706 191.522C71.9283 192.272 70.5454 192.835 69.1625 193.28C64.1933 194.874 58.7787 195.46 53.5986 195.976C48.4888 196.491 42.9102 196.726 38.0113 194.804C35.1986 193.702 34.9642 190.233 34.261 187.631C33.9094 186.342 33.5813 185.076 33.2062 183.787C32.8312 182.475 32.5499 181.021 31.7295 179.896C31.3779 179.404 30.6748 179.592 30.6279 180.201V180.178Z" fill="#E6C1B7"/>
<path d="M77.5787 146.892C73.6877 148.158 69.3983 148.603 65.3433 148.978C61.2882 149.353 57.2332 149.517 53.1781 149.494C49.0997 149.494 45.0446 149.283 40.9661 148.978C36.8173 148.673 32.6685 148.064 28.5197 147.783C27.4884 147.712 27.254 149.423 28.2854 149.588C32.4576 150.291 36.747 150.595 40.9661 150.9C45.2087 151.228 49.4747 151.416 53.7407 151.392C57.9832 151.392 62.2492 151.181 66.4683 150.713C70.4765 150.267 74.3909 149.798 78.0006 147.876C78.5631 147.595 78.1647 146.658 77.5787 146.869V146.892Z" fill="#E6C1B7"/>
<path d="M29.0781 156.623C29.5235 158.029 29.7813 159.529 29.8985 161.006C29.9923 162.155 30.0391 163.444 30.9767 164.288C31.7737 164.991 32.8285 164.991 33.766 164.616C34.5161 164.311 35.1255 163.889 35.9928 163.959C36.7663 164.006 37.5398 164.358 38.2664 164.592C43.5638 166.444 49.3064 167.757 54.5335 164.967C55.4007 164.498 54.6272 163.162 53.76 163.631C48.9783 166.163 43.4466 164.897 38.7118 162.975C37.7273 162.576 36.6725 162.178 35.5943 162.201C35.0552 162.201 34.563 162.342 34.0707 162.553C33.602 162.741 32.9691 163.209 32.4769 163.045C31.5862 162.764 31.7502 160.35 31.5627 159.506C31.3049 158.287 30.8361 157.256 30.2267 156.177C29.8985 155.591 28.914 155.99 29.125 156.646L29.0781 156.623Z" fill="#E6C1B7"/>
<path d="M37.0038 190.984C40.7541 194.5 47.0125 193.703 51.7473 193.633C57.1149 193.562 63.092 193.258 67.8971 190.656C68.5534 190.304 68.1081 189.109 67.358 189.39C62.506 191.382 57.7243 192.109 52.4973 192.226C50.0127 192.273 47.5047 192.32 45.0201 192.226C42.5355 192.133 39.7228 191.875 37.6835 190.281C37.1913 189.882 36.4647 190.539 36.9569 191.007L37.0038 190.984Z" fill="#E6C1B7"/>
<path d="M10.1166 237.957C8.66336 259.732 8.73368 281.672 8.94463 303.494C8.99151 309.026 9.08527 314.558 9.17903 320.089C9.27279 325.035 9.17903 330.051 9.64782 334.997C9.99941 338.911 10.8432 342.919 13.3747 346.037C16.164 349.482 20.4534 350.584 24.5554 351.662C44.3852 356.842 65.2933 356.655 85.4747 353.702C89.6235 353.092 94.1005 352.483 97.7102 350.209C101.039 348.1 103.125 344.654 104.086 340.904C105.164 336.731 105.07 332.372 105.023 328.106C104.953 322.574 104.883 317.042 104.812 311.51C104.578 289.665 104.39 267.819 104.461 245.973C104.461 243.254 104.461 240.536 104.461 237.817C104.461 235.941 101.578 235.941 101.531 237.817C101.179 258.771 101.437 279.773 101.742 300.728C101.882 311.065 102.164 321.402 102.398 331.762C102.492 335.77 102.562 340.013 100.945 343.763C99.1868 347.795 95.2724 349.881 91.1705 350.912C86.5998 352.061 81.7713 352.576 77.0834 353.139C72.1611 353.725 67.2153 354.03 62.2696 354.147C52.2843 354.381 42.346 353.655 32.5482 351.592C28.1182 350.654 23.3599 349.693 19.3518 347.537C15.5546 345.474 13.5622 342.099 12.7653 337.95C11.898 333.567 12.0621 328.949 11.9683 324.496C11.8511 319.245 11.7574 314.018 11.6871 308.768C11.4058 287.79 11.6871 266.835 11.9918 245.856C12.0387 243.231 12.0387 240.606 12.0387 238.004C12.0387 236.785 10.2572 236.809 10.1635 238.004L10.1166 237.957Z" fill="#E6C1B7"/>
<path d="M18.2504 245.575C17.219 256.967 16.4924 268.335 16.3518 279.774C16.2346 291.095 16.4924 302.416 17.1018 313.714C17.4066 319.41 17.8285 325.106 18.3207 330.778C18.5082 332.864 18.5551 335.231 19.9615 336.896C21.11 338.279 23.1727 339.052 24.8603 338.138C26.7121 337.13 27.1105 334.786 27.4387 332.911C27.884 330.356 28.095 327.754 28.1653 325.176C28.3294 319.574 28.0012 313.948 27.8371 308.346C27.4856 295.548 27.1105 282.75 26.7355 269.976C26.7355 269.366 25.7745 269.366 25.7745 269.976C25.7276 280.453 25.6807 290.907 25.6573 301.385C25.6573 306.612 25.6104 311.862 25.6338 317.089C25.6338 322.129 25.8213 327.262 24.9306 332.255C24.7666 333.216 24.6259 334.294 24.1806 335.185C23.5712 336.403 22.3289 335.982 21.696 334.997C21.1569 334.106 21.0631 332.981 20.9694 331.973C20.8522 330.614 20.735 329.278 20.6178 327.918C20.1959 322.715 19.8208 317.511 19.5396 312.284C18.9536 301.854 18.6957 291.4 18.6723 280.969C18.6723 269.202 18.7895 257.365 19.352 245.599C19.3989 244.849 18.2738 244.872 18.2035 245.599L18.2504 245.575Z" fill="#E6C1B7"/>
<path d="M29.1998 254.83C29.3639 252.556 30.0436 250.165 31.6375 248.454H30.864C33.9112 251.454 34.7784 255.369 34.9191 259.518C35.1066 264.463 34.7315 269.479 34.6143 274.449C34.3565 285.418 34.2628 296.388 34.1221 307.358C34.0518 312.796 33.9815 318.234 33.958 323.695C33.958 327.797 34.0752 332.063 35.3878 335.977C36.7239 340.009 39.3491 343.267 43.1229 345.283C47.3186 347.533 52.1706 348.611 56.8585 349.174C68.3204 350.604 79.7823 348.189 90.9864 345.963C92.2756 345.705 91.7131 343.759 90.4473 343.994C80.509 345.869 70.4534 347.533 60.3041 346.877C55.4521 346.572 50.436 345.681 45.9356 343.736C41.74 341.931 38.8803 338.837 37.6146 334.43C36.4661 330.375 36.5129 326.086 36.5598 321.89C36.6067 316.546 36.6536 311.202 36.7239 305.858C36.8411 295.075 37.0755 284.293 37.1927 273.534C37.2396 268.354 37.6615 263.01 36.9817 257.853C36.4661 253.916 35.13 249.696 31.4969 247.587C31.2391 247.446 30.9109 247.517 30.7703 247.774C29.528 250.025 28.5669 252.181 28.4029 254.783C28.3794 255.275 29.1529 255.275 29.1764 254.783L29.1998 254.83Z" fill="#E6C1B7"/>
<path d="M11.08 237.955C14.0099 238.588 16.8461 239.291 19.8229 239.76C22.7294 240.206 25.6594 240.604 28.5659 240.932C34.6367 241.659 40.7544 242.174 46.8722 242.479C59.0373 243.089 71.2493 242.831 83.3675 241.471C90.0712 240.721 96.7046 239.62 103.291 238.143C104.744 237.815 104.135 235.564 102.682 235.916C79.4297 241.237 55.1697 241.588 31.5193 239.08C28.1674 238.729 24.8155 238.283 21.4637 237.838C18.1353 237.393 14.7834 237.065 11.4785 236.596C10.5878 236.479 10.1893 237.768 11.1034 237.979L11.08 237.955Z" fill="#E6C1B7"/>
<path d="M103.174 236.058C100.244 235.425 97.4077 234.722 94.4309 234.253C91.5244 233.808 88.5944 233.409 85.6879 233.081C79.6171 232.355 73.4994 231.839 67.3816 231.534C55.2165 230.925 43.0045 231.183 30.8863 232.542C24.1826 233.292 17.5492 234.394 10.9627 235.871C9.50943 236.199 10.1189 238.449 11.5721 238.097C34.8241 232.777 59.084 232.425 82.7345 234.933C86.0864 235.285 89.4382 235.73 92.7901 236.175C96.1185 236.621 99.4704 236.949 102.775 237.418C103.666 237.535 104.065 236.246 103.15 236.035L103.174 236.058Z" fill="#E6C1B7"/>
<path d="M206.098 196.186C206.098 197.99 206.098 199.795 206.098 201.577C206.098 203.358 206.426 205.233 205.324 206.733C204.879 207.343 204.363 207.859 204.199 208.632C204.012 209.452 204.152 210.296 204.199 211.117C204.246 212.218 204.059 212.007 203.098 212.617C202.23 213.156 201.387 213.765 200.59 214.398C199.113 215.547 197.753 216.812 196.511 218.219C194.355 220.703 192.597 223.516 191.284 226.54C189.667 230.29 188.565 234.416 188.378 238.541C188.214 242.174 188.378 245.854 188.378 249.487V266.434C188.378 289.03 188.378 311.602 188.589 334.198C188.589 336.19 188.378 338.44 188.893 340.456C189.409 342.519 190.628 344.37 192.128 345.87C194.823 348.613 198.457 350.394 202.066 351.613C208.676 353.84 215.778 354.613 222.717 354.918C225.178 355.035 227.662 355.035 230.123 354.988C230.616 354.988 230.616 354.238 230.123 354.238C222.107 354.027 213.927 353.629 206.145 351.473C202.019 350.324 197.753 348.73 194.472 345.917C192.808 344.488 191.354 342.659 190.698 340.62C190.393 339.636 190.37 339.284 190.37 338.323C190.534 316.313 190.628 294.327 190.628 272.317C190.628 261.23 190.37 250.097 190.628 239.01C190.698 235.986 191.378 232.939 192.339 230.079C194.519 223.586 198.761 217.938 204.621 214.351C206.215 213.39 206.543 212.5 206.426 210.648C206.379 209.827 206.309 209.241 206.801 208.562C207.34 207.812 207.926 207.085 208.184 206.194C208.559 204.764 208.278 202.983 208.254 201.483V200.405C208.254 199.022 208.254 197.639 208.254 196.233C208.254 194.896 206.192 194.896 206.192 196.233L206.098 196.186Z" fill="#E6C1B7"/>
<path d="M251.783 196.188C251.783 197.969 251.783 199.75 251.783 201.508C251.783 202.985 251.502 204.72 251.854 206.126C252.064 206.993 252.65 207.696 253.143 208.4C253.729 209.197 253.658 209.829 253.588 210.79C253.471 212.572 253.893 213.392 255.393 214.306C257.081 215.338 258.628 216.51 260.057 217.869C262.542 220.213 264.534 223.026 266.058 226.073C267.91 229.823 269.128 234.089 269.363 238.285C269.55 241.309 269.386 244.403 269.386 247.426C269.386 252.982 269.386 258.537 269.386 264.068C269.386 286.078 269.339 308.064 269.55 330.074C269.574 332.864 269.644 335.653 269.644 338.442C269.644 338.958 269.621 339.286 269.55 339.567C269.199 341.396 268.308 342.989 267.042 344.396C264.558 347.185 261.136 348.92 257.69 350.185C251.127 352.646 244.001 353.514 237.04 353.912C234.649 354.053 232.258 354.147 229.867 354.193C229.375 354.193 229.375 354.944 229.867 354.944C237.884 355.131 246.064 354.615 253.893 352.74C258.229 351.685 262.612 350.115 266.175 347.326C268.988 345.122 271.308 341.981 271.355 338.301C271.613 317.065 271.613 295.829 271.59 274.593C271.59 263.295 271.59 251.997 271.59 240.723C271.59 237.254 271.144 233.855 270.136 230.527C268.238 224.221 264.605 218.479 259.378 214.424C258.628 213.838 257.854 213.275 257.034 212.759C256.049 212.126 255.698 212.244 255.744 211.142C255.768 210.368 255.909 209.595 255.744 208.821C255.58 207.978 255.065 207.439 254.572 206.759C253.307 205.048 253.799 202.493 253.799 200.407C253.799 199 253.799 197.594 253.799 196.188C253.799 194.852 251.736 194.852 251.736 196.188H251.783Z" fill="#E6C1B7"/>
<path d="M209.566 205.793C212.332 207.317 215.755 207.575 218.849 207.856C222.341 208.184 225.857 208.442 229.349 208.63C236.1 208.981 243.155 208.958 249.672 206.989C250.726 206.684 250.281 205.137 249.226 205.371C242.733 206.754 236.264 207.129 229.631 206.801C226.49 206.661 223.349 206.403 220.208 206.145C216.762 205.864 213.457 205.184 210.059 204.621C209.379 204.504 208.863 205.442 209.566 205.817V205.793Z" fill="#E6C1B7"/>
<path d="M207.715 214.705C211.043 216.369 214.887 216.978 218.544 217.541C222.247 218.127 225.998 218.479 229.748 218.572C237.272 218.783 245.077 218.127 252.344 216.088C253.516 215.76 253.023 214.072 251.851 214.283C244.515 215.689 237.248 216.65 229.748 216.463C226.091 216.369 222.435 216.041 218.825 215.455C215.215 214.892 211.676 213.791 208.043 213.463C207.41 213.416 207.152 214.4 207.715 214.681V214.705Z" fill="#E6C1B7"/>
<path d="M193.159 235.938C191.869 255.861 192.01 275.902 192.127 295.849C192.174 305.717 192.291 315.609 192.549 325.477C192.643 329.297 192.83 333.329 194.307 336.915C195.737 340.361 198.433 342.564 201.808 343.97C209.988 347.393 219.294 348.635 228.107 348.94C237.155 349.244 246.46 348.401 255.32 346.572C258.906 345.822 262.446 344.533 264.79 341.58C267.04 338.743 267.79 335.04 268.212 331.524C268.728 327.141 268.61 322.664 268.564 318.234C268.517 313.171 268.47 308.108 268.446 303.045C268.329 283.168 268.165 263.292 268.212 243.415C268.212 240.883 268.212 238.352 268.212 235.82C268.212 233.945 265.329 233.945 265.282 235.82C264.954 254.9 265.188 274.027 265.399 293.107C265.516 302.647 265.657 312.21 265.915 321.75C266.102 328.969 267.673 339.329 259.868 343.314C256.445 345.072 252.179 345.517 248.429 346.127C243.858 346.853 239.217 347.252 234.576 347.393C225.763 347.65 217.02 346.736 208.558 344.252C204.738 343.127 200.12 341.978 197.847 338.368C195.948 335.345 195.479 331.501 195.292 328.008C194.752 318.796 194.87 309.491 194.776 300.256C194.588 278.809 195.198 257.385 195.01 235.961C195.01 234.742 193.229 234.766 193.135 235.961L193.159 235.938Z" fill="#E6C1B7"/>
<path d="M203.732 222.974C201.739 225.599 200.45 228.881 199.255 231.952C198.059 234.999 197.192 238.233 196.7 241.468C196.231 244.515 195.95 247.75 196.653 250.797C197.169 253.071 198.669 255.977 201.341 256.118C204.224 256.282 205.396 252.719 206.169 250.586C207.318 247.375 208.021 244.046 208.935 240.765C209.849 237.53 210.974 234.389 212.85 231.577C214.373 229.279 217.35 225.224 220.444 225.412C222.483 225.529 224.499 226.514 226.491 226.912C228.343 227.287 230.242 227.521 232.14 227.592C236.055 227.756 239.969 227.24 243.72 226.139C244.751 225.834 244.305 224.24 243.274 224.545C236.594 226.42 229.867 226.279 223.233 224.287C220.374 223.42 218.264 223.584 215.85 225.412C213.717 227.029 211.889 229.022 210.388 231.248C207.013 236.311 205.841 242.382 204.083 248.125C203.661 249.484 203.239 250.914 202.607 252.18C202.302 252.789 201.95 253.61 201.083 253.328C200.474 253.117 200.005 252.274 199.747 251.735C198.575 249.32 198.809 246.226 199.044 243.624C199.395 240.109 200.309 236.686 201.435 233.358C202.536 230.076 204.154 226.889 204.997 223.513C205.185 222.716 204.2 222.388 203.732 222.974Z" fill="#E6C1B7"/>
<path d="M214.348 197.334C214.231 202.397 214.793 207.53 215.004 212.593C215.215 217.797 215.356 223.024 215.426 228.227C215.59 238.845 215.543 249.44 215.473 260.058C215.403 270.653 215.332 281.247 215.473 291.842C215.52 294.397 215.567 296.975 215.637 299.53C215.707 301.827 215.426 304.523 215.989 306.75C216.504 308.812 218.192 308.929 219.833 309.726C222.013 310.781 222.81 313.125 223.466 315.282C224.005 317.063 223.817 318.774 223.794 320.626C223.747 323.743 223.653 326.884 223.677 330.002C223.677 332.463 223.817 335.158 225.271 337.244C226.443 338.909 228.388 339.987 230.427 339.401C231.482 339.096 231.037 337.502 229.982 337.76C227.193 338.44 225.904 334.713 225.669 332.627C225.388 330.095 225.599 327.47 225.622 324.939C225.669 322.337 225.716 319.758 225.74 317.157C225.74 315.985 225.364 315 225.036 313.899C224.497 312.094 223.607 310.289 222.153 309.047C221.567 308.531 220.911 308.132 220.208 307.851C218.895 307.336 217.887 307.242 217.747 305.531C217.325 300.749 217.442 295.85 217.395 291.045C217.137 270.746 217.653 250.448 217.395 230.126C217.325 224.547 217.184 218.945 216.926 213.366C216.692 207.999 216.622 202.444 215.59 197.146C215.45 196.467 214.418 196.654 214.395 197.31L214.348 197.334Z" fill="#E6C1B7"/>
<path d="M243.813 197.17C242.922 201.858 242.805 206.757 242.571 211.515C242.336 216.437 242.172 221.383 242.078 226.329C241.891 236.478 241.914 246.627 241.985 256.753C242.055 266.926 242.125 277.122 242.055 287.295C242.008 292.17 241.938 297.022 241.774 301.898C241.75 303.023 241.727 304.171 241.657 305.296C241.539 307.054 240.789 307.242 239.336 307.804C237.648 308.437 236.359 309.679 235.468 311.226C234.625 312.656 234.015 314.438 233.687 316.055C233.546 316.805 233.64 317.602 233.64 318.352C233.64 319.876 233.687 321.423 233.711 322.946C233.757 325.829 233.921 328.736 233.781 331.595C233.664 333.846 232.632 338.557 229.398 337.783C228.343 337.526 227.898 339.12 228.952 339.424C233.335 340.667 235.375 335.533 235.656 332.135C235.867 329.486 235.656 326.767 235.656 324.095C235.656 322.759 235.609 321.423 235.609 320.087C235.609 318.985 235.422 317.743 235.562 316.641C235.773 315.164 236.406 313.453 237.133 312.188C237.672 311.25 238.422 310.359 239.383 309.844C240.203 309.398 241.164 309.281 241.985 308.789C243.86 307.617 243.579 305.132 243.649 303.21C243.719 300.749 243.79 298.311 243.836 295.85C244.258 274.684 243.672 253.495 243.907 232.329C243.977 226.469 244.094 220.586 244.305 214.726C244.516 208.96 245.172 203.1 245.032 197.334C245.032 196.678 243.977 196.49 243.836 197.17H243.813Z" fill="#E6C1B7"/>
<path d="M219.386 241.519C219.34 247.965 219.386 254.41 219.199 260.856C219.035 267.302 218.8 273.748 218.824 280.194C218.847 286.382 218.965 292.687 219.715 298.852C219.996 301.219 220.582 303.587 222.363 305.298C224.098 306.938 226.442 307.782 228.809 307.993C234.411 308.485 240.084 304.548 239.615 298.5C239.544 297.656 238.279 297.633 238.302 298.5C238.466 304.055 232.208 306.399 227.543 305.321C225.059 304.735 223.184 303.282 222.27 300.868C221.402 298.547 221.238 295.898 220.98 293.437C219.902 282.421 220.488 271.334 220.746 260.294C220.887 254.035 221.051 247.777 220.488 241.542C220.418 240.839 219.386 240.815 219.386 241.542V241.519Z" fill="#E6C1B7"/>
<path d="M216.998 156.223C217.772 156.223 217.772 155.004 216.998 155.004C216.225 155.004 216.225 156.223 216.998 156.223Z" fill="#E6C1B7"/>
<path d="M217.444 159.477C217.444 159.477 217.491 159.383 217.444 159.454C217.257 159.524 217.069 159.618 216.858 159.688C217.28 159.688 217.608 159.407 217.726 159.032C217.866 158.633 217.89 158.211 217.936 157.789C217.936 157.719 217.936 157.743 217.936 157.836C217.936 157.789 217.96 157.719 217.983 157.672C218.007 157.532 218.03 157.367 218.054 157.203C218.054 157.039 218.054 156.852 218.054 156.664C218.054 156.313 218.054 155.961 218.054 155.61C218.054 155.141 218.124 154.508 217.843 154.109C217.608 153.805 217.327 153.594 216.929 153.594C216.554 153.594 216.202 153.805 216.014 154.109C215.757 154.555 215.85 155.07 215.874 155.563C215.874 155.938 215.874 156.289 215.874 156.664C215.874 156.828 215.874 157.016 215.874 157.203C215.874 157.391 215.921 157.555 215.921 157.719C215.921 158.164 215.921 158.586 215.991 159.008C216.038 159.29 216.343 159.594 216.624 159.641C216.46 159.524 216.296 159.383 216.132 159.266C216.132 159.196 216.132 159.196 216.132 159.29C216.319 159.852 217.093 159.993 217.397 159.454L217.444 159.477Z" fill="#E6C1B7"/>
<path d="M261.979 192.998C256.494 194.053 250.962 195.014 245.407 195.6C240.204 196.139 235.024 196.28 229.797 196.28C224.452 196.28 219.132 196.116 213.834 195.53C211.115 195.225 208.373 194.827 205.677 194.334C203.005 193.842 200.333 192.998 197.637 192.741C196.536 192.647 196.536 194.147 197.403 194.499C199.958 195.553 202.982 195.905 205.701 196.397C208.396 196.889 211.115 197.264 213.834 197.569C219.178 198.179 224.523 198.343 229.914 198.343C240.86 198.343 251.83 197.452 262.354 194.264C263.151 194.03 262.823 192.858 262.002 193.022L261.979 192.998Z" fill="#E6C1B7"/>
<path d="M212.121 138.008C214.582 125.937 213.668 113.373 213.316 101.138C213.152 95.3718 213.691 89.2306 217.09 84.4021C219.762 80.6283 223.723 78.1672 228.388 78.0265C229.583 78.0031 230.779 77.8859 231.997 77.9562C234.177 78.0734 236.287 79.0344 238.068 80.2299C242.428 83.1364 244.889 88.0352 245.71 93.0982C246.671 99.1924 246.389 105.591 246.296 111.733C246.202 117.921 246.108 124.109 246.647 130.297C246.952 133.719 247.561 137.047 248.241 140.423C248.897 143.681 249.085 147.033 246.788 149.705C244.819 151.978 241.889 153.408 239.123 154.416C235.982 155.565 232.724 156.08 229.396 156.01V158.869C229.747 158.869 230.075 158.869 230.427 158.869V156.01C225.2 156.127 219.879 154.697 215.496 151.791C213.621 150.548 212.004 148.837 211.418 146.634C210.668 143.798 211.558 140.798 212.144 138.032C212.543 136.18 209.706 135.407 209.308 137.258C208.652 140.423 207.808 143.681 208.488 146.939C209.074 149.681 210.832 151.931 213.011 153.619C217.863 157.346 224.38 159.034 230.427 158.916C232.279 158.869 232.279 156.057 230.427 156.057C230.075 156.057 229.747 156.057 229.396 156.057C227.544 156.057 227.544 158.893 229.396 158.916C235.396 159.057 241.795 157.346 246.647 153.713C248.686 152.166 250.374 150.15 251.124 147.665C252.085 144.431 251.241 141.032 250.562 137.844C247.725 124.484 249.624 110.842 248.757 97.3407C248.382 91.434 247.093 85.7616 242.944 81.3081C239.779 77.9093 235.771 76.292 231.154 76.3858C229.607 76.4092 228.06 76.1748 226.489 76.3623C224.216 76.6202 222.036 77.5343 220.161 78.8235C215.918 81.7534 213.105 86.4413 212.074 91.4574C211.3 95.2077 211.207 99.0987 210.925 102.896C210.668 106.599 210.761 110.326 210.761 114.053C210.761 121.835 210.832 129.664 209.285 137.305C208.91 139.157 211.746 139.954 212.121 138.079V138.008Z" fill="#E6C1B7"/>
<path d="M241.541 160.278C241.541 160.278 241.565 160.184 241.541 160.254C241.377 160.372 241.213 160.512 241.049 160.629C241.33 160.583 241.635 160.278 241.682 159.997C241.729 159.575 241.752 159.176 241.752 158.754C241.752 158.567 241.799 158.379 241.799 158.192C241.799 158.028 241.799 157.84 241.799 157.676C241.799 157.324 241.799 156.973 241.799 156.621C241.799 156.106 241.916 155.59 241.658 155.121C241.471 154.793 241.119 154.605 240.744 154.605C240.346 154.605 240.041 154.816 239.83 155.121C239.549 155.52 239.619 156.106 239.619 156.574C239.619 156.949 239.619 157.301 239.619 157.676C239.619 157.84 239.619 158.028 239.619 158.192C239.619 158.356 239.666 158.496 239.689 158.66C239.689 158.754 239.736 158.918 239.689 158.731C239.76 159.153 239.783 159.598 239.924 160.02C240.041 160.395 240.393 160.676 240.791 160.676C240.604 160.606 240.416 160.512 240.205 160.442C240.158 160.372 240.158 160.395 240.205 160.465C240.51 161.004 241.283 160.864 241.471 160.301L241.541 160.278Z" fill="#E6C1B7"/>
<path d="M217.394 160.979C218.308 162.479 220.793 162.737 222.363 162.924C224.355 163.182 226.348 163.346 228.34 163.534C232.301 163.885 236.145 163.885 239.896 162.385C241.044 161.916 240.552 160.041 239.38 160.51C235.981 161.869 232.137 161.659 228.528 161.377C226.652 161.237 224.801 161.073 222.926 160.862C221.988 160.768 221.074 160.604 220.16 160.393C219.363 160.205 218.566 159.947 217.745 160.065C217.347 160.135 217.183 160.651 217.37 160.955L217.394 160.979Z" fill="#E6C1B7"/>
<path d="M226.583 82.06C225.176 78.1456 220.16 84.0055 219.223 85.4587C216.785 89.3028 215.753 94.0141 215.378 98.5145C214.535 108.687 217.136 118.813 216.035 129.009C215.754 131.611 215.332 134.236 214.769 136.815C214.253 139.182 213.456 141.62 213.316 144.058C213.058 148.581 216.152 151.23 220.23 152.496C223.512 153.504 228.176 152.379 228.598 148.347C228.833 145.956 227.403 143.776 226.676 141.596C225.833 139.065 225.387 136.51 225.153 133.861C224.145 122.001 225.387 110.07 228.2 98.5145C228.434 97.5301 226.911 97.1082 226.7 98.0926C224.707 106.671 223.746 115.532 223.7 124.345C223.7 128.775 223.887 133.205 224.379 137.588C224.59 139.44 224.825 141.245 225.434 143.026C226.161 145.136 228.012 147.925 226.02 149.917C224.543 151.371 222.34 151.253 220.512 150.644C218.355 149.917 215.988 148.675 215.402 146.308C214.886 144.315 215.496 142.206 216.082 140.307C216.738 138.198 217.347 136.088 217.863 133.955C220.043 125.118 218.707 116.258 218.168 107.328C217.887 102.687 217.887 97.952 218.941 93.3813C219.434 91.2248 220.184 89.1387 221.238 87.1698C221.777 86.1853 222.363 85.2243 223.114 84.4039C223.371 84.1226 225.012 82.3647 225.457 82.7632C225.926 83.1851 226.864 82.7866 226.606 82.0834L226.583 82.06Z" fill="#E6C1B7"/>
<path d="M198.643 193.372V160.205C198.197 160.463 197.775 160.697 197.33 160.955C198.643 161.612 200.143 162.01 201.549 162.362C206.214 163.557 211.066 164.12 215.847 164.495C224.028 165.128 232.302 165.151 240.482 164.612C245.967 164.26 251.452 163.627 256.82 162.409C258.835 161.94 260.898 161.448 262.797 160.604L261.484 159.854C261.484 171.128 261.273 182.379 261.273 193.653C261.273 194.779 263.008 194.779 263.008 193.653C263.008 182.379 263.219 171.128 263.219 159.854C263.219 159.127 262.492 158.846 261.906 159.104C261.906 159.104 262.094 159.033 261.789 159.15C261.508 159.268 261.203 159.361 260.922 159.479C259.773 159.877 258.578 160.205 257.382 160.486C252.577 161.682 247.608 162.315 242.686 162.713C234.622 163.37 226.489 163.416 218.426 162.924C213.339 162.619 208.206 162.104 203.237 160.979C201.901 160.674 200.541 160.322 199.252 159.877C198.69 159.69 198.479 159.596 198.197 159.455C197.611 159.174 196.885 159.525 196.885 160.205V193.372C196.885 194.497 198.619 194.497 198.619 193.372H198.643Z" fill="#E6C1B7"/>
<path d="M198.222 160.51C201.246 160.581 204.293 159.995 207.293 159.713C210.34 159.432 213.387 159.268 216.435 159.198C217.841 159.174 217.841 156.994 216.435 157.018C213.317 157.065 210.223 157.252 207.106 157.533C204.082 157.815 200.894 158.096 198.035 159.174C197.355 159.432 197.425 160.463 198.222 160.487V160.51Z" fill="#E6C1B7"/>
<path d="M240.554 157.93C241.233 158.422 242.101 158.398 242.898 158.492C243.695 158.586 244.491 158.656 245.288 158.727C247.07 158.891 248.875 159.102 250.656 159.289C252.367 159.477 254.102 159.711 255.813 159.805C256.68 159.852 257.524 159.852 258.391 159.852C259.305 159.852 260.243 160.086 261.157 159.992C261.673 159.945 262.095 159.125 261.462 158.844C260.665 158.516 259.821 158.469 259.001 158.258C258.11 158.023 257.219 157.766 256.328 157.578C254.594 157.226 252.813 157.062 251.078 156.898C249.297 156.711 247.492 156.617 245.71 156.476C244.773 156.406 243.859 156.359 242.921 156.336C242.101 156.336 241.304 156.242 240.577 156.64C240.061 156.922 240.155 157.578 240.577 157.883L240.554 157.93Z" fill="#E6C1B7"/>
<path d="M203.941 161.823C203.402 164.331 203.448 167.026 203.355 169.558C203.261 172.371 203.191 175.207 203.191 178.019C203.144 183.528 203.027 189.177 203.495 194.662C203.589 195.669 205.089 195.716 205.113 194.662C205.16 189.224 204.831 183.762 204.855 178.301C204.855 175.582 204.902 172.839 204.972 170.12C205.042 167.425 205.324 164.612 205.042 161.94C204.972 161.354 204.081 161.12 203.941 161.799V161.823Z" fill="#E6C1B7"/>
<path d="M215.521 163.531C214.771 168.922 215.193 174.524 215.31 179.962C215.427 185.564 215.615 191.19 215.849 196.792C215.92 198.222 218.146 198.222 218.076 196.792C217.818 191.19 217.607 185.564 217.467 179.962C217.326 174.524 217.607 168.922 216.787 163.531C216.693 162.922 215.638 162.922 215.545 163.531H215.521Z" fill="#E6C1B7"/>
<path d="M230.194 164.355C229.608 169.769 229.796 175.231 229.866 180.668C229.937 186.106 229.89 191.568 230.241 196.982C230.335 198.295 232.281 198.318 232.304 196.982C232.421 191.544 232.187 186.106 232.116 180.668C232.046 175.231 232.116 169.769 231.484 164.355C231.39 163.534 230.288 163.511 230.194 164.355Z" fill="#E6C1B7"/>
<path d="M245.805 163.349C244.867 174.295 244.398 185.288 243.742 196.258C243.672 197.477 245.57 197.477 245.641 196.258C245.992 190.656 246.438 185.077 246.766 179.499C246.93 176.803 247.094 174.108 247.258 171.412C247.422 168.693 247.797 165.88 247.071 163.208C246.86 162.482 245.852 162.669 245.805 163.372V163.349Z" fill="#E6C1B7"/>
<path d="M257.033 161.142C256.096 163.674 256.189 166.768 255.979 169.44C255.768 172.252 255.533 175.042 255.322 177.855C254.877 183.55 254.361 189.246 254.01 194.965C253.939 196.301 255.955 196.278 256.072 194.965C256.611 189.27 256.986 183.55 257.432 177.855C257.643 175.042 257.854 172.252 258.088 169.44C258.299 166.768 258.838 163.791 258.322 161.142C258.182 160.439 257.268 160.58 257.057 161.142H257.033Z" fill="#E6C1B7"/>
<path d="M107.556 340.127C122.323 343.76 137.84 344.463 152.982 344.369C154.365 344.369 154.365 342.236 152.982 342.236C138.004 342.119 122.745 341.58 108.142 337.97C106.736 337.619 106.15 339.775 107.556 340.127Z" fill="#E6C1B7"/>
<path d="M116.462 78.9864C116.391 89.206 116.274 99.4257 116.274 109.622C116.274 111.099 116.274 112.575 116.274 114.052C116.391 113.794 116.485 113.536 116.602 113.278C114.751 114.732 112.29 116.513 110.18 117.99C105.14 121.529 99.7963 124.6 94.663 127.998C91.2408 130.272 87.8656 133.038 85.6388 136.554C84.2793 138.687 84.1855 140.023 84.1855 142.554C84.1855 150.313 84.1855 158.048 84.1855 165.806C84.1855 167.26 86.4357 167.26 86.4357 165.806C86.4357 159.009 86.4357 152.212 86.4357 145.414C86.4357 142.601 85.9904 140.351 87.3733 138.031C89.5532 134.374 93.1629 131.608 96.6788 129.335C101.695 126.147 106.758 123.076 111.61 119.654C113.133 118.576 114.657 117.474 116.134 116.349C116.743 115.88 117.61 115.411 118.103 114.825C118.782 114.052 118.454 112.341 118.454 111.427C118.454 105.379 118.431 99.3319 118.36 93.2845C118.314 88.5029 118.29 83.7212 118.267 78.9395C118.267 77.7441 116.415 77.7441 116.415 78.9395L116.462 78.9864Z" fill="#E6C1B7"/>
<path d="M121.124 57.2578C118.546 57.3047 116.624 58.3829 114.491 59.6955C112.686 60.7972 110.858 62.016 109.592 63.7506C106.779 67.6181 108.35 72.5873 111.608 75.6578C118.405 82.0803 128.695 82.9241 137.532 83.6038C141.962 83.9554 146.509 84.2133 150.939 84.0258C152.135 83.9789 152.158 82.1037 150.939 82.1506C144.048 82.385 136.946 81.4943 130.149 80.3223C126.023 79.6191 121.828 78.6112 118.077 76.6892C114.679 74.9547 109.967 71.6497 111.022 67.1727C111.514 65.0397 113.413 63.6802 115.1 62.4848C117.116 61.055 119.273 59.6486 121.476 58.5235C122.085 58.2188 121.781 57.2578 121.148 57.2813L121.124 57.2578Z" fill="#E6C1B7"/>
<path d="M189.289 337.784C174.288 341.745 158.466 342.308 143.043 342.401C141.66 342.401 141.66 344.534 143.043 344.534C158.63 344.605 174.733 343.948 189.875 339.917C191.258 339.542 190.672 337.385 189.289 337.76V337.784Z" fill="#E6C1B7"/>
<path d="M177.686 79.172C177.639 87.3524 177.522 95.5093 177.499 103.69C177.499 107.112 177.264 110.604 177.499 114.003C177.569 115.128 178.553 115.574 179.397 116.23C182.023 118.199 184.695 120.121 187.39 121.949C192.055 125.137 197.071 127.809 201.641 131.114C204.431 133.13 207.15 135.591 208.861 138.638C209.564 139.904 211.509 138.779 210.806 137.49C207.126 130.88 199.883 127.387 193.766 123.473C188.914 120.379 183.734 116.863 179.397 113.441C179.515 113.698 179.608 113.956 179.725 114.237C179.725 104.018 179.632 93.7982 179.561 83.602V79.172C179.515 77.9765 177.686 77.9765 177.686 79.172Z" fill="#E6C1B7"/>
<path d="M171.029 68.0398C170.419 64.1254 172.857 60.5158 175.295 57.703C177.615 55.0075 180.006 52.3588 182.116 49.4523C186.218 43.7799 188.866 37.17 187.765 30.0912C185.749 17.1057 175.717 5.87821 163.13 2.24508C158.629 0.95591 154.082 0.97935 149.464 0.862152C145.55 0.768394 141.542 0.46368 137.627 1.00279C124.384 2.78419 113.414 12.3475 109.219 24.9345C107.976 28.638 107.344 32.529 107.906 36.3965C108.469 40.3109 110.086 43.9909 112.172 47.2959C114.282 50.6243 116.86 53.6245 119.438 56.5545C122.087 59.5547 125.509 63.3988 124.665 67.7351C124.408 69.0243 126.283 69.5869 126.658 68.2742C128.603 61.2424 123.001 56.0857 118.923 51.1868C114.61 46.0067 110.578 39.8421 110.766 32.8337C110.93 26.4816 114 19.9185 118.009 15.0665C122.087 10.1676 127.525 6.55796 133.666 4.79999C137.979 3.58114 142.292 3.62802 146.699 3.6749C150.238 3.72178 153.895 3.53426 157.41 3.90929C170.419 5.26878 181.272 15.0665 184.671 27.5598C185.749 31.4742 185.843 35.3886 184.624 39.303C183.475 43.0064 181.413 46.3583 179.069 49.4289C174.99 54.7731 167.208 60.7267 169.646 68.3446C169.927 69.2118 171.123 68.8368 171.005 67.9695L171.029 68.0398Z" fill="#E6C1B7"/>
<path d="M169.575 80.8156C166.645 88.2459 166.434 96.5904 165.45 104.443C164.981 108.17 164.653 112.365 163.246 115.905C161.84 119.444 157.363 120.1 154.035 120.78C152.253 121.132 150.542 121.038 148.737 120.991C147.12 120.944 145.503 120.991 143.909 120.874C142.338 120.78 140.791 120.335 139.291 119.913C137.533 119.421 135.4 119.022 134.041 117.709C132.939 116.631 132.517 115.061 132.189 113.584C131.72 111.568 131.369 109.506 131.064 107.466C130.384 102.919 129.728 98.3718 129.119 93.8245C128.533 89.371 127.806 84.941 126.587 80.6046C126.329 79.7374 125.04 80.089 125.228 80.9797C126.165 85.4097 126.751 89.8867 127.22 94.3871C127.665 98.7 127.853 103.06 128.462 107.349C128.767 109.529 129.142 111.709 129.611 113.865C129.986 115.53 130.455 117.217 131.462 118.624C133.572 121.577 137.979 122.397 141.331 123.077C143.346 123.476 145.292 123.499 147.331 123.546C148.948 123.593 150.613 123.71 152.23 123.663C154.363 123.593 156.519 122.89 158.559 122.304C160.176 121.835 161.84 121.343 163.2 120.288C166.176 117.991 166.622 113.701 167.208 110.256C168.028 105.427 168.52 100.552 169.036 95.6763C169.552 90.7774 170.231 85.902 170.794 81.0031C170.864 80.2999 169.856 80.2999 169.645 80.839L169.575 80.8156Z" fill="#E6C1B7"/>
<path d="M174.522 58.6876C176.584 59.8127 178.6 61.1019 180.522 62.4145C182.069 63.4927 183.827 64.6413 184.648 66.4227C186.734 70.9465 181.788 74.7906 178.342 76.6423C174.475 78.705 170.162 79.7832 165.849 80.5567C160.95 81.424 155.911 82.0803 150.941 82.1271C149.723 82.1271 149.723 84.0023 150.941 84.0023C155.536 84.0023 160.153 83.6273 164.7 83.1116C168.709 82.6663 172.787 82.0099 176.537 80.5333C180.171 79.1034 183.874 77.0173 186.148 73.7592C188.351 70.6183 188.468 66.493 186.03 63.4693C184.765 61.8988 182.983 60.7268 181.272 59.7189C179.186 58.4767 177.334 57.4219 174.85 57.4219C174.194 57.4219 173.912 58.3595 174.522 58.6642V58.6876Z" fill="#E6C1B7"/>
<path d="M121.267 66.7492C123.236 70.3354 128.182 71.2027 131.886 71.5777C137.23 72.1168 142.738 71.8824 148.106 71.8121C153.403 71.7418 158.677 71.5074 163.927 70.8042C166.107 70.5229 168.334 70.1479 170.42 69.4213C172.084 68.8353 174.592 67.6633 175.483 66.046C175.788 65.5069 175.296 64.8975 174.71 65.0381C173.678 65.2725 172.788 65.9757 171.78 66.3273C170.889 66.6554 169.975 66.9133 169.084 67.1945C167.115 67.7805 165.052 68.1321 163.013 68.3899C158.161 68.9759 153.286 69.1869 148.41 69.2572C143.676 69.3275 138.894 69.3978 134.159 69.1869C131.979 69.0931 129.799 68.8822 127.713 68.2727C125.744 67.6868 124.057 66.7492 122.228 65.835C121.642 65.5538 120.986 66.1397 121.314 66.7492H121.267Z" fill="#E6C1B7"/>
<path d="M118.149 124.998C119.321 125.56 120.353 126.404 121.548 126.943C122.673 127.459 123.845 127.904 124.994 128.326C127.314 129.147 129.729 129.803 132.119 130.342C136.971 131.397 141.964 131.913 146.91 131.866C156.942 131.748 166.927 129.451 175.928 124.998C177.381 124.271 176.115 122.138 174.662 122.841C165.943 127.061 156.356 129.311 146.652 129.381C141.8 129.428 136.971 128.983 132.237 128.022C129.963 127.553 127.736 126.967 125.533 126.287C124.431 125.959 123.33 125.584 122.251 125.232C121.079 124.834 119.72 124.646 118.618 124.154C118.056 123.896 117.54 124.717 118.126 124.998H118.149Z" fill="#E6C1B7"/>
<path d="M113.954 66.3765C112.548 73.3381 121.127 75.9399 126.307 77.1118C129.776 77.8853 133.315 78.2838 136.855 78.4948C138.636 78.612 140.441 78.6588 142.246 78.7057C144.074 78.7292 146.02 78.8933 147.825 78.612C148.575 78.4948 148.598 77.1822 147.825 77.065C144.965 76.6431 141.894 76.9946 139.011 76.9243C135.777 76.8306 132.542 76.5962 129.354 76.0571C126.401 75.5648 123.471 74.8148 120.682 73.7131C117.822 72.588 114.259 70.2206 114.869 66.6344C114.962 66.0484 114.072 65.7671 113.954 66.3765Z" fill="#E6C1B7"/>
<path d="M131.272 86.837C131.413 88.3606 131.343 89.8842 131.507 91.4077C131.671 92.861 131.858 94.2908 132.046 95.7206C132.421 98.5802 132.819 101.463 133.241 104.323C133.616 106.901 133.827 109.597 134.46 112.128C134.952 114.05 135.913 115.972 137.906 116.699C139.5 117.285 140.976 116.746 142.008 115.457C143.063 114.121 143.602 111.495 145.711 111.636C148.032 111.777 149.649 114.496 151.735 115.41C153.892 116.324 156.259 116.324 158.392 115.41C159.259 115.035 158.884 113.605 157.994 113.957C155.72 114.894 153.165 114.8 151.055 113.441C149.321 112.316 148.055 110.628 145.875 110.37C144.469 110.206 143.391 110.839 142.5 111.87C141.773 112.714 140.859 115.011 139.547 114.964C137.578 114.894 136.921 111.425 136.687 109.995C136.265 107.511 135.937 105.003 135.562 102.518C135.163 99.846 134.718 97.1973 134.273 94.5486C134.038 93.2126 133.827 91.9 133.57 90.5873C133.312 89.2747 132.843 88.009 132.562 86.6964C132.421 85.9698 131.202 86.1338 131.272 86.8605V86.837Z" fill="#E6C1B7"/>
<path d="M127.409 14.9481C121.08 20.011 117.423 27.2304 116.861 35.3171C116.58 39.1611 117.119 43.1693 118.595 46.7555C120.002 50.1308 122.721 53.7171 126.518 54.514C130.737 55.4047 133.737 51.0215 135.12 47.6462C136.011 45.5132 136.55 43.2865 137.3 41.1301C138.05 38.9502 139.128 36.8875 140.511 35.0123C141.871 33.1606 143.535 31.4964 145.41 30.1838C147.379 28.8009 149.489 27.6523 151.387 26.1991C154.341 23.9254 156.989 20.3392 156.286 16.4013C155.513 12.0416 151.247 9.48669 147.168 8.99446C144.59 8.6663 141.988 8.94758 139.433 9.32261C136.925 9.69764 134.534 10.2368 132.401 11.6431C131.393 12.2994 132.284 13.8699 133.339 13.2605C136.667 11.3618 141.261 10.9634 145.035 10.9868C148.598 10.9868 153.051 12.3229 154.247 16.1201C155.536 20.1986 151.786 23.7145 148.762 25.7537C145.645 27.8398 142.433 29.6447 139.878 32.4574C137.417 35.153 135.777 38.3173 134.581 41.7395C133.409 45.1382 132.401 49.498 129.143 51.5606C125.885 53.6468 122.463 49.0995 121.244 46.568C119.767 43.4974 119.275 40.005 119.299 36.6297C119.322 29.0587 122.885 21.1361 128.534 16.0732C129.307 15.37 128.182 14.3387 127.409 14.9481Z" fill="#E6C1B7"/>
<path d="M90.7036 149.866C94.2664 150.499 97.7589 151.179 101.369 151.648C105.095 152.116 108.822 152.515 112.549 152.867C120.12 153.593 127.715 154.109 135.332 154.39C150.381 154.976 165.499 154.742 180.524 153.359C188.751 152.609 196.932 151.53 205.065 150.03C206.542 149.772 205.909 147.522 204.456 147.804C175.203 153.195 145.107 153.476 115.549 150.921C111.448 150.569 107.346 150.148 103.244 149.679C99.1418 149.233 95.0164 148.905 90.9145 148.436C90.1176 148.343 89.93 149.702 90.727 149.843L90.7036 149.866Z" fill="#E6C1B7"/>
<path d="M204.924 147.971C201.361 147.338 197.869 146.658 194.259 146.189C190.532 145.72 186.805 145.322 183.078 144.97C175.508 144.244 167.913 143.752 160.295 143.447C145.247 142.861 130.129 143.095 115.104 144.478C106.877 145.228 98.6962 146.306 90.5627 147.807C89.086 148.064 89.7188 150.315 91.1721 150.033C120.425 144.642 150.521 144.361 180.078 146.916C184.18 147.268 188.282 147.689 192.384 148.158C196.486 148.604 200.611 148.932 204.713 149.4C205.51 149.494 205.698 148.135 204.901 147.994L204.924 147.971Z" fill="#E6C1B7"/>
<path d="M108.073 330.401C110.651 331.034 113.136 331.737 115.761 332.229C118.363 332.721 120.941 333.143 123.566 333.518C128.699 334.245 133.856 334.807 139.036 335.182C149.561 335.956 160.155 335.979 170.68 335.276C176.61 334.878 182.54 334.339 188.4 333.377C189.642 333.167 189.361 331.034 188.095 331.174C177.782 332.416 167.492 333.378 157.108 333.471C146.748 333.542 136.364 332.979 126.074 331.69C123.168 331.338 120.285 330.916 117.402 330.471C114.425 330.026 111.378 329.697 108.401 329.182C107.627 329.041 107.276 330.19 108.073 330.377V330.401Z" fill="#E6C1B7"/>
<path d="M109.667 324.466C114.753 324.349 119.863 324.326 124.95 324.255C129.966 324.185 134.958 324.044 139.951 324.068C150.053 324.115 160.156 324.466 170.235 325.193C176.001 325.615 181.72 326.342 187.486 326.717C188.682 326.787 188.986 324.795 187.768 324.607C182.845 323.81 177.806 323.482 172.813 323.083C167.727 322.685 162.64 322.38 157.531 322.146C147.334 321.7 137.138 321.63 126.942 321.911C121.129 322.076 115.41 322.662 109.644 323.294C108.917 323.365 108.894 324.466 109.644 324.443L109.667 324.466Z" fill="#E6C1B7"/>
<path d="M89.2031 149.164C88.8515 154.227 88.9453 159.29 88.9453 164.353C88.9453 169.51 88.875 174.69 88.9453 179.847C89.0625 190.066 89.3203 200.309 89.461 210.529C89.461 211.607 91.1252 211.607 91.1252 210.529C91.2658 200.309 91.5237 190.066 91.6409 179.847C91.6877 174.784 91.6409 169.721 91.6409 164.658C91.6409 159.501 91.7346 154.321 91.3596 149.164C91.2658 147.781 89.2969 147.781 89.2031 149.164Z" fill="#E6C1B7"/>
<path d="M95.7399 132.407C93.4897 134.071 91.7551 136.532 90.5363 139.04C89.5753 141.009 88.3564 143.822 89.8565 145.814C91.427 147.9 94.2632 147.009 96.0211 145.697C98.2479 144.056 100.006 141.782 101.834 139.743C103.85 137.493 106.03 135.407 108.866 134.258C111.96 133.016 115.335 132.852 118.617 133.086C121.922 133.321 125.203 133.93 128.485 134.352C132.024 134.821 135.587 135.126 139.173 135.313C146.955 135.735 154.761 135.407 162.496 134.352C163.199 134.258 163.035 133.04 162.332 133.086C156.05 133.626 149.721 133.883 143.416 133.696C136.993 133.485 130.735 132.641 124.406 131.539C118.922 130.578 113.062 130.016 107.788 132.196C102.983 134.188 100.1 138.454 96.6774 142.111C95.6695 143.189 94.5444 144.478 93.0678 144.9C90.7472 145.556 91.0285 142.931 91.4973 141.525C92.5521 138.407 94.4741 135.946 96.4665 133.391C96.865 132.875 96.3258 131.938 95.693 132.407H95.7399Z" fill="#E6C1B7"/>
</g>
<defs>
<clipPath id="clip0_162_728">
<rect width="284.352" height="365" fill="white"/>
</clipPath>
</defs>
</svg>
