<svg width="284" height="295" viewBox="0 0 284 295" fill="none" xmlns="http://www.w3.org/2000/svg">
<path d="M9.56696 160.019C16.9123 177.143 27.3794 193.027 38.9482 207.58C61.3974 235.768 89.9523 259.135 122.042 275.479C139.258 284.201 157.805 291.868 177.132 294.163C187.094 295.357 197.424 294.806 207.018 291.73C215.603 288.976 223.362 284.247 230.156 278.417C244.984 265.562 254.074 247.658 260.318 229.341C265.781 213.319 269.775 196.746 272.621 179.989C272.713 179.668 272.759 179.347 272.805 179.025C277.579 157.678 280.839 135.963 282.537 114.157C283.915 96.5741 284.144 78.6699 280.38 61.3625C276.707 44.4683 268.581 28.3545 254.809 17.4742C239.384 5.35444 219.827 0.396352 200.499 0.0290858C179.473 -0.384088 158.172 3.65584 137.926 8.88938C117.91 14.0311 98.3535 21.1469 79.6229 29.9154C48.1758 44.6978 11.1737 65.8156 1.9921 102.221C-2.87418 121.686 1.76257 141.977 9.56696 160.019Z" fill="#A4636F"/>
</svg>
