<svg width="350" height="438" viewBox="0 0 350 438" fill="none" xmlns="http://www.w3.org/2000/svg">
<path d="M14.184 237.27C25.0754 262.66 40.5955 286.213 57.7494 307.791C91.036 349.587 133.376 384.235 180.958 408.468C206.484 421.402 233.985 432.769 262.643 436.173C277.414 437.943 292.73 437.126 306.957 432.565C319.686 428.481 331.19 421.47 341.264 412.825C363.251 393.765 376.729 367.217 385.987 340.057C394.087 316.3 400.01 291.727 404.23 266.881C404.366 266.404 404.434 265.928 404.502 265.451C411.582 233.798 416.415 201.601 418.933 169.267C420.975 143.196 421.316 116.648 415.734 90.9858C410.288 65.9357 398.24 42.0428 377.818 25.91C354.947 7.93934 325.948 0.587694 297.291 0.0431273C266.114 -0.56951 234.529 5.42072 204.51 13.1808C174.831 20.8047 145.833 31.3557 118.06 44.3572C71.4316 66.2761 16.5665 97.5887 2.95233 151.569C-4.26318 180.431 2.612 210.518 14.184 237.27Z" fill="#A4636F"/>
</svg>
